<svg version="1.1" xmlns="http://www.w3.org/2000/svg" viewBox="0 0 1737.758493944366 731.5302645857116" width="3475.516987888732" height="1463.0605291714232" filter="invert(93%) hue-rotate(180deg)">
  <!-- svg-source:excalidraw -->
  
  <defs>
    <style class="style-fonts">
      @font-face {
        font-family: "Virgil";
        src: url("https://excalidraw.com/Virgil.woff2");
      }
      @font-face {
        font-family: "Cascadia";
        src: url("https://excalidraw.com/Cascadia.woff2");
      }
      @font-face {
        font-family: "Assistant";
        src: url("https://excalidraw.com/Assistant-Regular.woff2");
      }
    </style>
    
  </defs>
  <g stroke-opacity="0" fill-opacity="0" stroke-linecap="round" transform="translate(731.6122616290704 88.28061909350299) rotate(0 142.50082967440358 142.50082967440352)"><path d="M83.38 13.89 C94.85 5.9, 110.61 2.51, 124.94 0.64 C139.27 -1.22, 154.81 -0.05, 169.36 2.7 C183.91 5.45, 199.47 9.86, 212.23 17.12 C224.99 24.38, 235.96 35.54, 245.91 46.26 C255.86 56.99, 265.54 68.2, 271.91 81.47 C278.29 94.73, 282.28 111.06, 284.16 125.84 C286.05 140.63, 286.03 155.84, 283.25 170.17 C280.47 184.49, 274.88 199.05, 267.49 211.8 C260.09 224.55, 249.8 236.61, 238.87 246.68 C227.93 256.75, 215.16 266.13, 201.9 272.21 C188.63 278.3, 173.84 281.47, 159.3 283.19 C144.75 284.9, 128.86 285.22, 114.61 282.5 C100.35 279.77, 86.59 274.06, 73.76 266.84 C60.92 259.62, 47.64 249.95, 37.6 239.17 C27.55 228.39, 19.43 215.28, 13.48 202.15 C7.53 189.02, 3.77 174.81, 1.88 160.37 C-0.02 145.94, -0.44 130.17, 2.12 115.55 C4.68 100.93, 9.93 85.41, 17.24 72.64 C24.55 59.88, 33.29 49.47, 45.98 38.96 C58.66 28.44, 83.23 14.59, 93.34 9.53 C103.46 4.46, 105.78 6.32, 106.67 8.55 M186.53 8.07 C200.61 10.25, 215.1 19.21, 226.79 27.85 C238.48 36.5, 248.16 48.42, 256.67 59.92 C265.18 71.42, 272.93 83.18, 277.87 96.86 C282.8 110.54, 286.34 126.94, 286.27 142.03 C286.2 157.12, 282.41 173.42, 277.46 187.4 C272.51 201.39, 265.22 214.43, 256.55 225.94 C247.88 237.44, 237.13 247.78, 225.43 256.44 C213.73 265.11, 199.94 273.11, 186.37 277.93 C172.8 282.75, 158.44 285.21, 144.01 285.35 C129.58 285.49, 113.82 283.18, 99.79 278.77 C85.75 274.35, 72.06 267.51, 59.79 258.84 C47.51 250.17, 34.78 238.99, 26.15 226.75 C17.51 214.52, 12.19 199.52, 7.96 185.43 C3.72 171.35, 0.97 156.81, 0.75 142.24 C0.53 127.66, 2.43 111.94, 6.63 98 C10.83 84.06, 17.1 70.44, 25.96 58.59 C34.81 46.74, 47.63 35.26, 59.75 26.91 C71.87 18.56, 84.69 12.87, 98.67 8.48 C112.64 4.1, 129.06 0.84, 143.59 0.62 C158.11 0.4, 179.05 5.53, 185.81 7.16 C192.57 8.78, 184.85 8.18, 184.14 10.36" stroke="#e03131" stroke-width="1" fill="none"></path></g><g transform="translate(811.7339256540581 272.7661175739031) rotate(0 62.37916564941406 30.512182408174283)"><text x="62.37916564941406" y="42.76587486329705" font-family="Virgil, Segoe UI Emoji" font-size="48.81949185307882px" fill="#e03131" text-anchor="middle" style="white-space: pre;" direction="ltr" dominant-baseline="alphabetic">Redis</text></g><g stroke-linecap="round"><g transform="translate(813.3015415709415 169.01827449332518) rotate(0 52.36292399895319 27.001086052851065)"><path d="M-0.03 1.11 C0.26 12.35, 0.15 55.3, 0.74 68.61 C1.34 81.93, 0.62 76.87, 3.53 81 C6.45 85.14, 12.61 90.56, 18.22 93.42 C23.83 96.27, 29.43 97.26, 37.19 98.14 C44.96 99.01, 56.92 100.05, 64.81 98.68 C72.71 97.31, 78.57 92.95, 84.57 89.89 C90.57 86.83, 97.61 84.1, 100.8 80.32 C103.99 76.54, 103.11 76.43, 103.73 67.21 C104.35 57.99, 104.38 38.7, 104.51 24.99 C104.64 11.28, 104.52 -6.08, 104.51 -15.05 C104.51 -24.03, 106.76 -24.95, 104.5 -28.89 C102.24 -32.82, 97.49 -36.04, 90.97 -38.67 C84.45 -41.29, 74.47 -43.49, 65.37 -44.65 C56.27 -45.82, 44.92 -46.67, 36.36 -45.66 C27.79 -44.65, 19.67 -41.55, 13.98 -38.6 C8.29 -35.65, 4.34 -31.6, 2.2 -27.96 C0.05 -24.33, 1.39 -21.31, 1.11 -16.79 C0.83 -12.27, 0.82 -3.77, 0.52 -0.86 M-1.51 0.64 C-1.22 12.55, -0.49 56.35, 0.18 69.91 C0.85 83.47, -0.53 78.45, 2.52 81.99 C5.57 85.53, 12.44 88.5, 18.5 91.16 C24.55 93.81, 31.42 96.84, 38.85 97.93 C46.28 99.03, 55.45 99.3, 63.07 97.75 C70.69 96.21, 78.42 91.54, 84.59 88.67 C90.76 85.8, 97.16 84.31, 100.1 80.55 C103.04 76.79, 101.37 75.51, 102.23 66.11 C103.1 56.7, 104.89 37.54, 105.3 24.11 C105.72 10.68, 105.04 -5.54, 104.72 -14.48 C104.4 -23.42, 105.72 -25.33, 103.39 -29.55 C101.05 -33.77, 97.15 -37.32, 90.71 -39.81 C84.27 -42.31, 73.79 -43.39, 64.76 -44.52 C55.74 -45.64, 44.89 -47.78, 36.56 -46.56 C28.23 -45.34, 20.15 -39.92, 14.78 -37.21 C9.41 -34.51, 6.77 -33.75, 4.35 -30.34 C1.93 -26.93, 1.09 -21.64, 0.26 -16.76 C-0.56 -11.88, -0.45 -3.72, -0.59 -1.06" stroke="#e03131" stroke-width="1" fill="none"></path></g></g><mask></mask><g stroke-linecap="round"><g transform="translate(814.1030148974605 145.12580431249967) rotate(0 52.22934511120184 10.819889907946958)"><path d="M0.74 -0.46 C2.54 1.34, 4.67 8.28, 10.75 11.93 C16.82 15.57, 28.37 19.97, 37.19 21.4 C46 22.83, 54.85 21.64, 63.64 20.51 C72.43 19.38, 83.32 17.57, 89.93 14.64 C96.53 11.71, 100.75 4.73, 103.27 2.91 M-0.33 -1.75 C1.27 0.71, 3.42 9.61, 9.55 13.13 C15.68 16.65, 27.48 18.04, 36.45 19.35 C45.42 20.67, 54.6 21.72, 63.36 21.02 C72.11 20.32, 82.18 18.31, 88.96 15.14 C95.74 11.97, 101.21 4.03, 104.06 2" stroke="#e03131" stroke-width="1" fill="none"></path></g></g><mask></mask><g stroke-linecap="round"><g transform="translate(813.2452553298172 167.7372357997026) rotate(0 52.22934511120184 10.819889907947015)"><path d="M-0.47 -0.63 C1.28 1.63, 5.17 9.73, 11.27 13.12 C17.37 16.51, 27.07 18.25, 36.12 19.71 C45.18 21.16, 57.01 22.69, 65.61 21.85 C74.22 21.01, 81.2 17.68, 87.78 14.67 C94.35 11.65, 102.24 5.67, 105.08 3.76 M1.48 1.65 C3.02 3.6, 4.19 8.16, 10.35 11.29 C16.52 14.42, 29.15 18.47, 38.49 20.43 C47.82 22.4, 57.89 23.95, 66.37 23.07 C74.84 22.2, 83.21 18.48, 89.34 15.19 C95.47 11.89, 100.44 5.46, 103.15 3.29" stroke="#e03131" stroke-width="1" fill="none"></path></g></g><mask></mask><g stroke-linecap="round"><g transform="translate(812.5109610097898 184.11921459239625) rotate(0 52.22934511120184 10.819889907947015)"><path d="M0.05 0.56 C1.83 2.57, 3.87 8.01, 10.21 11.43 C16.55 14.84, 29.22 19.31, 38.1 21.05 C46.97 22.8, 54.88 22.8, 63.46 21.88 C72.04 20.96, 82.69 18.63, 89.58 15.51 C96.47 12.4, 102.31 5.48, 104.8 3.21 M-1.38 -0.19 C0.81 1.98, 5.85 8.59, 12.39 12.37 C18.93 16.15, 29.39 20.69, 37.84 22.48 C46.29 24.27, 54.65 24.72, 63.09 23.11 C71.52 21.5, 81.83 16.26, 88.43 12.81 C95.04 9.37, 99.94 3.96, 102.73 2.45" stroke="#e03131" stroke-width="1" fill="none"></path></g></g><mask></mask><g stroke-linecap="round" transform="translate(48.61748674542105 658.814585504273) rotate(0 79.75018202865067 31.357839540719283)"><path d="M4.17 3.63 C4.17 3.63, 4.17 3.63, 4.17 3.63 M4.17 3.63 C4.17 3.63, 4.17 3.63, 4.17 3.63 M0.37 20.2 C4.57 17.93, 5.48 11.71, 17.43 0.57 M0.37 20.2 C3.86 15.38, 8.19 10.8, 17.43 0.57 M0.5 32.24 C7.43 22.22, 15.67 16.03, 28.06 0.54 M0.5 32.24 C7.98 23.33, 18.09 12.42, 28.06 0.54 M0.64 44.28 C16.09 29.4, 29.78 12.52, 38.69 0.51 M0.64 44.28 C8.4 34.64, 16.66 26.8, 38.69 0.51 M2.08 54.81 C17.53 39.86, 29.24 22.19, 49.32 0.47 M2.08 54.81 C12.95 42.49, 24.1 28.99, 49.32 0.47 M7.46 60.81 C26.89 37.91, 44.72 16.47, 59.95 0.44 M7.46 60.81 C26.17 40.74, 43.45 18.45, 59.95 0.44 M16.78 62.29 C34.67 37.65, 56 17.13, 69.92 1.16 M16.78 62.29 C33.52 43.27, 51.68 23.95, 69.92 1.16 M27.41 62.25 C46.96 40.22, 65 19.58, 80.55 1.12 M27.41 62.25 C37.9 49.66, 50.7 36.15, 80.55 1.12 M38.04 62.22 C47.64 47.72, 61.64 37.78, 91.18 1.09 M38.04 62.22 C51.35 45.93, 66.61 31.05, 91.18 1.09 M48.67 62.18 C69.39 38.8, 91.82 14.31, 101.81 1.05 M48.67 62.18 C69.66 39.25, 90.44 14.89, 101.81 1.05 M59.3 62.15 C73.35 46.82, 86.12 29.6, 112.44 1.02 M59.3 62.15 C75.18 42.87, 92.99 23.32, 112.44 1.02 M69.93 62.12 C87.09 44.26, 103.18 23.58, 123.07 0.98 M69.93 62.12 C90.37 39.04, 112.13 15.48, 123.07 0.98 M79.91 62.84 C90.94 47.54, 103.72 36.25, 133.7 0.95 M79.91 62.84 C97.14 41.89, 116.37 20.42, 133.7 0.95 M90.54 62.8 C104.24 45.26, 118.95 30.84, 143.68 1.67 M90.54 62.8 C102.18 49.87, 112.76 36.16, 143.68 1.67 M101.17 62.77 C117.87 42.78, 132.85 23.91, 152.99 3.14 M101.17 62.77 C115.21 46.59, 130.79 28.61, 152.99 3.14 M111.8 62.73 C125.33 46.01, 137.71 29.93, 158.38 9.15 M111.8 62.73 C131.13 40.63, 148.35 20.02, 158.38 9.15 M122.43 62.7 C133.62 48.88, 149.56 34.04, 159.17 20.43 M122.43 62.7 C133.75 50.85, 143.93 37.81, 159.17 20.43 M133.06 62.66 C143.24 51.22, 153.26 41.06, 159.3 32.48 M133.06 62.66 C140.61 52.18, 149.43 44.01, 159.3 32.48 M143.69 62.63 C147.6 56.76, 153.85 50.41, 158.78 45.27 M143.69 62.63 C147.38 59.09, 150.15 55.27, 158.78 45.27" stroke="#ff8787" stroke-width="1" fill="none"></path><path d="M15.68 0 C61.55 1.82, 106.59 0.51, 143.82 0 M15.68 0 C51.47 -0.23, 88.98 1.56, 143.82 0 M143.82 0 C153.95 -0.28, 161.07 4.35, 159.5 15.68 M143.82 0 C153.02 0.81, 159.1 3.24, 159.5 15.68 M159.5 15.68 C161.18 24.24, 159.05 35.56, 159.5 47.04 M159.5 15.68 C159.53 28.14, 159.72 39.96, 159.5 47.04 M159.5 47.04 C159.56 59.28, 152.31 64.02, 143.82 62.72 M159.5 47.04 C157.72 57.08, 152.64 61.98, 143.82 62.72 M143.82 62.72 C96.04 62.46, 49.12 62.64, 15.68 62.72 M143.82 62.72 C108.02 62.35, 73.77 61.81, 15.68 62.72 M15.68 62.72 C4.01 61.12, -0.38 56.75, 0 47.04 M15.68 62.72 C3.77 63.59, -0.94 58.36, 0 47.04 M0 47.04 C-0.22 38.09, 1.9 24.21, 0 15.68 M0 47.04 C0.07 37, 0.63 25.3, 0 15.68 M0 15.68 C1.93 3.44, 5.15 1.45, 15.68 0 M0 15.68 C-0.31 3.48, 5.91 -1.07, 15.68 0" stroke="#e03131" stroke-width="2" fill="none"></path></g><g transform="translate(88.70769562953865 677.6724250449923) rotate(0 39.65997314453125 12.5)"><text x="39.65997314453125" y="17.52" font-family="Virgil, Segoe UI Emoji" font-size="20px" fill="#1e1e1e" text-anchor="middle" style="white-space: pre;" direction="ltr" dominant-baseline="alphabetic">Backend</text></g><g stroke-linecap="round" transform="translate(238.83020820821912 658.814585504273) rotate(0 79.75018202865067 31.357839540719283)"><path d="M4.17 3.63 C4.17 3.63, 4.17 3.63, 4.17 3.63 M4.17 3.63 C4.17 3.63, 4.17 3.63, 4.17 3.63 M0.37 20.2 C6.21 13.64, 11.41 7.07, 17.43 0.57 M0.37 20.2 C5.11 15.96, 8.21 11.91, 17.43 0.57 M0.5 32.24 C12.36 20.68, 21.68 6.64, 28.06 0.54 M0.5 32.24 C7.83 22.9, 15.3 15.2, 28.06 0.54 M0.64 44.28 C11.39 31.16, 21.08 18.8, 38.69 0.51 M0.64 44.28 C10.7 31.15, 20.87 19.84, 38.69 0.51 M2.08 54.81 C15.66 39.23, 33.42 20.05, 49.32 0.47 M2.08 54.81 C12.49 41.7, 24.51 28.82, 49.32 0.47 M7.46 60.81 C23.96 43.8, 38.4 24.3, 59.95 0.44 M7.46 60.81 C22.1 43.73, 36.93 27.79, 59.95 0.44 M16.78 62.29 C28.1 46.23, 42.97 35.11, 69.92 1.16 M16.78 62.29 C29.7 46.82, 44.61 30.55, 69.92 1.16 M27.41 62.25 C36.21 50.27, 48.91 38.27, 80.55 1.12 M27.41 62.25 C41 46.95, 54.58 31.09, 80.55 1.12 M38.04 62.22 C48.44 49.72, 60.22 35.22, 91.18 1.09 M38.04 62.22 C54.98 45.02, 70.34 25.81, 91.18 1.09 M48.67 62.18 C66.53 44.11, 80.82 25.2, 101.81 1.05 M48.67 62.18 C66.72 41.45, 85.74 20.02, 101.81 1.05 M59.3 62.15 C77.71 41.4, 95.17 21.74, 112.44 1.02 M59.3 62.15 C78.64 40.34, 96.78 19.97, 112.44 1.02 M69.93 62.12 C84.78 47.4, 96.13 29.35, 123.07 0.98 M69.93 62.12 C80.96 49.54, 92.69 37.44, 123.07 0.98 M79.91 62.84 C94.34 46.67, 107.17 29.86, 133.7 0.95 M79.91 62.84 C94.72 45.34, 110.78 25.8, 133.7 0.95 M90.54 62.8 C102.52 46.53, 114.52 31.52, 143.68 1.67 M90.54 62.8 C110.49 40.06, 131.65 16.31, 143.68 1.67 M101.17 62.77 C111.72 51.03, 121.74 38.82, 152.99 3.14 M101.17 62.77 C110.3 51.49, 122.41 39.34, 152.99 3.14 M111.8 62.73 C127.34 45.4, 142.96 23.35, 158.38 9.15 M111.8 62.73 C126.15 46.45, 140.33 30.23, 158.38 9.15 M122.43 62.7 C135.68 46.92, 147.77 33.09, 159.17 20.43 M122.43 62.7 C133.04 49.73, 141.9 38.09, 159.17 20.43 M133.06 62.66 C139.94 56.49, 144.32 49.89, 159.3 32.48 M133.06 62.66 C142.89 52.28, 152.03 40.11, 159.3 32.48 M143.69 62.63 C148.26 57.91, 155.7 50.15, 158.78 45.27 M143.69 62.63 C147.76 58.15, 152.34 51.47, 158.78 45.27" stroke="#ff8787" stroke-width="1" fill="none"></path><path d="M15.68 0 C53.35 -2.32, 90.18 -2.71, 143.82 0 M15.68 0 C43.44 -0.91, 70.04 -0.44, 143.82 0 M143.82 0 C154.11 -0.97, 157.86 4.29, 159.5 15.68 M143.82 0 C155.6 -1.83, 158.61 6.81, 159.5 15.68 M159.5 15.68 C160.38 28.61, 158.76 39.67, 159.5 47.04 M159.5 15.68 C160.57 26.61, 160.7 36.89, 159.5 47.04 M159.5 47.04 C160.35 56.97, 152.76 60.72, 143.82 62.72 M159.5 47.04 C159.76 56.13, 153.19 63.11, 143.82 62.72 M143.82 62.72 C110.89 63.05, 76.4 61.8, 15.68 62.72 M143.82 62.72 C112.22 61.75, 82.58 63.23, 15.68 62.72 M15.68 62.72 C4.92 62.44, -1 56.73, 0 47.04 M15.68 62.72 C7.51 63.07, 0.04 55.25, 0 47.04 M0 47.04 C0.9 39.91, 0 29.75, 0 15.68 M0 47.04 C0.19 37.58, 0.74 28.2, 0 15.68 M0 15.68 C-1.8 3.54, 6.12 -0.49, 15.68 0 M0 15.68 C1.61 5.23, 5.13 0.2, 15.68 0" stroke="#e03131" stroke-width="2" fill="none"></path></g><g transform="translate(278.9204170923367 677.6724250449923) rotate(0 39.65997314453125 12.5)"><text x="39.65997314453125" y="17.52" font-family="Virgil, Segoe UI Emoji" font-size="20px" fill="#1e1e1e" text-anchor="middle" style="white-space: pre;" direction="ltr" dominant-baseline="alphabetic">Backend</text></g><g stroke-linecap="round" transform="translate(429.6318235455183 658.814585504273) rotate(0 79.75018202865067 31.357839540719283)"><path d="M4.17 3.63 C4.17 3.63, 4.17 3.63, 4.17 3.63 M4.17 3.63 C4.17 3.63, 4.17 3.63, 4.17 3.63 M4.31 15.67 C8.32 11.47, 12.01 7.32, 16.77 1.33 M4.31 15.67 C8.12 11.66, 10.26 8.48, 16.77 1.33 M4.44 27.71 C13.19 20.85, 18.91 10.32, 27.4 1.29 M4.44 27.71 C13.98 17.49, 21.23 8.36, 27.4 1.29 M4.57 39.75 C15.27 26.8, 29.78 12.93, 38.03 1.26 M4.57 39.75 C13.21 29.55, 21.77 19.76, 38.03 1.26 M3.39 53.3 C14.01 41.53, 23.66 33.09, 48.66 1.23 M3.39 53.3 C20.93 32, 39.27 11.92, 48.66 1.23 M6.81 61.57 C25.71 38.81, 45.3 18.21, 59.29 1.19 M6.81 61.57 C21.89 44.08, 36.31 26.79, 59.29 1.19 M13.5 66.06 C27.69 46.87, 44.61 29.51, 69.92 1.16 M13.5 66.06 C25.79 50.84, 39.88 36.85, 69.92 1.16 M24.13 66.03 C37.73 47.9, 52.72 33.04, 79.9 1.88 M24.13 66.03 C44.88 43.92, 64.29 20.8, 79.9 1.88 M34.76 65.99 C56.47 40.32, 77.8 14.61, 90.53 1.84 M34.76 65.99 C47.3 51.12, 61.03 36.06, 90.53 1.84 M45.39 65.96 C68.48 39.63, 86.18 15.34, 101.16 1.81 M45.39 65.96 C64.17 45.7, 83.3 23.38, 101.16 1.81 M56.02 65.92 C72.04 47.4, 86.04 32.69, 111.79 1.77 M56.02 65.92 C77.62 41.66, 99.51 17.22, 111.79 1.77 M66 66.64 C85.38 44.94, 102.51 21.47, 122.42 1.74 M66 66.64 C80.47 50.71, 95.04 32.16, 122.42 1.74 M76.63 66.61 C93.52 46.56, 110.13 29.34, 133.05 1.7 M76.63 66.61 C96.71 42.8, 117.47 18.89, 133.05 1.7 M87.26 66.58 C104.97 44.07, 122.79 26.04, 143.68 1.67 M87.26 66.58 C101.44 48.78, 116.41 32.72, 143.68 1.67 M97.89 66.54 C111.09 51.12, 126.08 34.52, 152.99 3.14 M97.89 66.54 C114.98 47.44, 131.66 28.7, 152.99 3.14 M108.52 66.51 C123.32 49.15, 136.74 32.24, 159.69 7.64 M108.52 66.51 C119.75 53.86, 129.49 42.52, 159.69 7.64 M119.15 66.47 C133.98 49.19, 148.88 33.49, 163.1 15.91 M119.15 66.47 C128.15 56.05, 137.15 45.49, 163.1 15.91 M129.78 66.44 C141.52 54.21, 152.16 39.48, 163.23 27.95 M129.78 66.44 C139.92 55.91, 148.78 44.52, 163.23 27.95 M139.75 67.16 C147.07 60.72, 152.87 50.89, 162.71 40.74 M139.75 67.16 C148.49 57.05, 157.07 47.33, 162.71 40.74" stroke="#ff8787" stroke-width="1" fill="none"></path><path d="M15.68 0 C41.24 1.16, 65.63 -1.36, 143.82 0 M15.68 0 C54.93 0.56, 94.53 -0.73, 143.82 0 M143.82 0 C155.81 -1.54, 160.03 5.86, 159.5 15.68 M143.82 0 C153.38 1.94, 159.15 6.94, 159.5 15.68 M159.5 15.68 C157.38 25.05, 158.92 37.57, 159.5 47.04 M159.5 15.68 C159.22 24.27, 160.06 32.98, 159.5 47.04 M159.5 47.04 C158.98 58.01, 152.41 62.52, 143.82 62.72 M159.5 47.04 C159.56 58.27, 152.49 64.18, 143.82 62.72 M143.82 62.72 C111.5 63.4, 75.21 60.49, 15.68 62.72 M143.82 62.72 C108.02 62.83, 73.18 63.91, 15.68 62.72 M15.68 62.72 C4.96 62.27, -1.92 58.7, 0 47.04 M15.68 62.72 C3.56 63.11, 0.06 57.24, 0 47.04 M0 47.04 C-0.34 35.65, 1.67 29.38, 0 15.68 M0 47.04 C0.66 35.11, 0.78 23.24, 0 15.68 M0 15.68 C-1.31 5.45, 5.18 -1.5, 15.68 0 M0 15.68 C-0.38 5.35, 4.1 1.19, 15.68 0" stroke="#e03131" stroke-width="2" fill="none"></path></g><g transform="translate(469.7220324296359 677.6724250449923) rotate(0 39.65997314453125 12.5)"><text x="39.65997314453125" y="17.52" font-family="Virgil, Segoe UI Emoji" font-size="20px" fill="#1e1e1e" text-anchor="middle" style="white-space: pre;" direction="ltr" dominant-baseline="alphabetic">Backend</text></g><g stroke-linecap="round" transform="translate(620.7278858200661 658.814585504273) rotate(0 79.75018202865067 31.357839540719283)"><path d="M4.17 3.63 C4.17 3.63, 4.17 3.63, 4.17 3.63 M4.17 3.63 C4.17 3.63, 4.17 3.63, 4.17 3.63 M4.31 15.67 C8.72 11.39, 10.68 7.36, 16.77 1.33 M4.31 15.67 C7.15 12.72, 10.26 9.25, 16.77 1.33 M4.44 27.71 C10.71 18.29, 17.43 13.38, 27.4 1.29 M4.44 27.71 C10.17 20.1, 16.05 13.29, 27.4 1.29 M4.57 39.75 C16.75 27.69, 28.83 13.24, 38.03 1.26 M4.57 39.75 C14.18 28.84, 22.58 19.52, 38.03 1.26 M3.39 53.3 C19.28 37.71, 30.14 20.03, 48.66 1.23 M3.39 53.3 C16.01 38.28, 29.76 22.53, 48.66 1.23 M6.81 61.57 C23.86 44.78, 36.54 26.98, 59.29 1.19 M6.81 61.57 C25.78 38.44, 45.91 17, 59.29 1.19 M13.5 66.06 C36.93 41.38, 57.92 15.68, 69.92 1.16 M13.5 66.06 C33.23 44.98, 51.48 22.77, 69.92 1.16 M24.13 66.03 C37.27 51.03, 50.52 35.36, 79.9 1.88 M24.13 66.03 C38.27 48.62, 53.08 31.3, 79.9 1.88 M34.76 65.99 C50 49.03, 63.91 33.14, 90.53 1.84 M34.76 65.99 C50.87 46.63, 67.13 28.68, 90.53 1.84 M45.39 65.96 C59.06 51.77, 67.02 40.7, 101.16 1.81 M45.39 65.96 C60.01 50.22, 72.63 34.49, 101.16 1.81 M56.02 65.92 C76.28 40.76, 97.19 21.05, 111.79 1.77 M56.02 65.92 C69.64 49.36, 84.71 33.92, 111.79 1.77 M66 66.64 C81.88 44.53, 102.12 27.27, 122.42 1.74 M66 66.64 C78.07 50.98, 91.81 36.59, 122.42 1.74 M76.63 66.61 C99.39 43.3, 118.06 15.63, 133.05 1.7 M76.63 66.61 C88.9 51.66, 102.11 36.6, 133.05 1.7 M87.26 66.58 C101.48 52.08, 111.03 37.25, 143.68 1.67 M87.26 66.58 C106.16 46.57, 123.85 25.22, 143.68 1.67 M97.89 66.54 C111.94 50.56, 130.3 32.04, 152.99 3.14 M97.89 66.54 C108.88 53.78, 120.15 40.62, 152.99 3.14 M108.52 66.51 C125.06 46.56, 141.6 26.64, 159.69 7.64 M108.52 66.51 C120.81 52.26, 132.81 36.65, 159.69 7.64 M119.15 66.47 C130.71 51.29, 145.82 37.79, 163.1 15.91 M119.15 66.47 C130.65 51.16, 142.8 38.16, 163.1 15.91 M129.78 66.44 C142.4 51.07, 153.27 39.69, 163.23 27.95 M129.78 66.44 C140.49 55.67, 148.75 45.01, 163.23 27.95 M139.75 67.16 C147.4 58.2, 154.9 51.77, 162.71 40.74 M139.75 67.16 C148.84 57.39, 157.13 47.74, 162.71 40.74" stroke="#ff8787" stroke-width="1" fill="none"></path><path d="M15.68 0 C60.92 -1.44, 105.29 -2.46, 143.82 0 M15.68 0 C56.83 1.22, 97.55 1.57, 143.82 0 M143.82 0 C154.15 0.65, 159.84 6.92, 159.5 15.68 M143.82 0 C154.61 1.69, 161.47 6.17, 159.5 15.68 M159.5 15.68 C158.08 26.95, 157.89 39.8, 159.5 47.04 M159.5 15.68 C158.64 27.02, 159.67 36.94, 159.5 47.04 M159.5 47.04 C158.67 55.49, 152.71 62.09, 143.82 62.72 M159.5 47.04 C160.3 59, 155.29 62.44, 143.82 62.72 M143.82 62.72 C115.08 60.68, 86.49 63.85, 15.68 62.72 M143.82 62.72 C107.92 62.28, 73.19 62.95, 15.68 62.72 M15.68 62.72 C6.28 63.6, -1.08 56.87, 0 47.04 M15.68 62.72 C5.22 62.2, 0.72 56.37, 0 47.04 M0 47.04 C-1.44 37.38, 0.51 26.91, 0 15.68 M0 47.04 C-0.52 33.83, 0.65 22.96, 0 15.68 M0 15.68 C-0.21 7.17, 3.4 1.54, 15.68 0 M0 15.68 C-0.51 6.81, 5.36 1.6, 15.68 0" stroke="#e03131" stroke-width="2" fill="none"></path></g><g transform="translate(660.8180947041837 677.6724250449923) rotate(0 39.65997314453125 12.5)"><text x="39.65997314453125" y="17.52" font-family="Virgil, Segoe UI Emoji" font-size="20px" fill="#1e1e1e" text-anchor="middle" style="white-space: pre;" direction="ltr" dominant-baseline="alphabetic">Backend</text></g><g stroke-linecap="round" transform="translate(810.9406072828642 658.814585504273) rotate(0 79.75018202865067 31.357839540719283)"><path d="M4.17 3.63 C4.17 3.63, 4.17 3.63, 4.17 3.63 M4.17 3.63 C4.17 3.63, 4.17 3.63, 4.17 3.63 M0.37 20.2 C3.93 15.56, 9.22 9.24, 17.43 0.57 M0.37 20.2 C6.35 13.88, 11.78 6.05, 17.43 0.57 M0.5 32.24 C5.53 26.16, 11.72 18.42, 28.06 0.54 M0.5 32.24 C8 23.7, 14.22 16.73, 28.06 0.54 M0.64 44.28 C12.06 31.07, 25.46 17.3, 38.69 0.51 M0.64 44.28 C10.77 31.59, 20.05 21.67, 38.69 0.51 M2.08 54.81 C16.36 38.24, 30.95 21.27, 49.32 0.47 M2.08 54.81 C17.18 36.96, 32.62 20.99, 49.32 0.47 M7.46 60.81 C26.74 41.01, 43.92 19.66, 59.95 0.44 M7.46 60.81 C20.84 44.92, 32.93 31.83, 59.95 0.44 M16.78 62.29 C31.6 44.09, 45.03 29.66, 69.92 1.16 M16.78 62.29 C34.67 40.83, 53.85 19.88, 69.92 1.16 M27.41 62.25 C46.3 41.64, 65.82 17.64, 80.55 1.12 M27.41 62.25 C41.34 45.92, 55.77 30.21, 80.55 1.12 M38.04 62.22 C53.45 42.38, 67.98 24.98, 91.18 1.09 M38.04 62.22 C48.14 49.45, 59.23 38.84, 91.18 1.09 M48.67 62.18 C59.92 48, 74.68 36.37, 101.81 1.05 M48.67 62.18 C67.51 40.33, 85.78 20.02, 101.81 1.05 M59.3 62.15 C70.26 48.56, 82.12 33.15, 112.44 1.02 M59.3 62.15 C73.83 45.78, 88.91 27.72, 112.44 1.02 M69.93 62.12 C80.98 48.35, 94.34 30.96, 123.07 0.98 M69.93 62.12 C83.76 48.13, 95.31 33.28, 123.07 0.98 M79.91 62.84 C99.25 41.17, 122.61 16.06, 133.7 0.95 M79.91 62.84 C97.42 41.85, 115.56 21.44, 133.7 0.95 M90.54 62.8 C106.1 45.12, 120.01 29.98, 143.68 1.67 M90.54 62.8 C110.79 38.29, 131.96 14.82, 143.68 1.67 M101.17 62.77 C118.16 40.97, 138.72 17.85, 152.99 3.14 M101.17 62.77 C116.48 46.32, 130.28 28.28, 152.99 3.14 M111.8 62.73 C124.55 47.74, 140.53 31.71, 158.38 9.15 M111.8 62.73 C127.9 44.03, 145.08 25.67, 158.38 9.15 M122.43 62.7 C131.66 52.59, 143.12 38.85, 159.17 20.43 M122.43 62.7 C130.54 53.58, 136.99 45.97, 159.17 20.43 M133.06 62.66 C138.06 55.62, 145.01 52.51, 159.3 32.48 M133.06 62.66 C142.1 51.93, 150.67 42.17, 159.3 32.48 M143.69 62.63 C148.28 57.25, 150.78 55.84, 158.78 45.27 M143.69 62.63 C147.68 58.7, 151.9 54.26, 158.78 45.27" stroke="#ff8787" stroke-width="1" fill="none"></path><path d="M15.68 0 C49.13 0.97, 80.47 0.67, 143.82 0 M15.68 0 C60.03 -0.72, 104.67 -0.2, 143.82 0 M143.82 0 C154.56 1.47, 161.21 6.04, 159.5 15.68 M143.82 0 C156.25 1.95, 160.05 3.28, 159.5 15.68 M159.5 15.68 C160.14 23.51, 159.19 30.27, 159.5 47.04 M159.5 15.68 C159.15 25.55, 158.79 37.11, 159.5 47.04 M159.5 47.04 C160.2 58.8, 155.15 62.47, 143.82 62.72 M159.5 47.04 C157.63 56.93, 153.05 61.88, 143.82 62.72 M143.82 62.72 C113.59 64.86, 84.81 62.65, 15.68 62.72 M143.82 62.72 C115.3 63.06, 85.19 62.32, 15.68 62.72 M15.68 62.72 C5.22 62.26, 0.63 56.52, 0 47.04 M15.68 62.72 C6.27 60.42, 0.71 55.48, 0 47.04 M0 47.04 C1.94 35.97, 0.48 23.58, 0 15.68 M0 47.04 C-0.32 40.82, -1.13 33.43, 0 15.68 M0 15.68 C-0.44 6.61, 5.34 1.39, 15.68 0 M0 15.68 C1.25 4.87, 3.74 1.95, 15.68 0" stroke="#e03131" stroke-width="2" fill="none"></path></g><g transform="translate(851.0308161669818 677.6724250449923) rotate(0 39.65997314453125 12.5)"><text x="39.65997314453125" y="17.52" font-family="Virgil, Segoe UI Emoji" font-size="20px" fill="#1e1e1e" text-anchor="middle" style="white-space: pre;" direction="ltr" dominant-baseline="alphabetic">Backend</text></g><g stroke-linecap="round" transform="translate(1001.7422226201597 658.814585504273) rotate(0 79.75018202865067 31.357839540719283)"><path d="M4.17 3.63 C4.17 3.63, 4.17 3.63, 4.17 3.63 M4.17 3.63 C4.17 3.63, 4.17 3.63, 4.17 3.63 M0.37 20.2 C7.18 13.52, 12.94 7, 17.43 0.57 M0.37 20.2 C5.96 12.78, 13.74 5.17, 17.43 0.57 M0.5 32.24 C8.48 20.6, 18.08 12.42, 28.06 0.54 M0.5 32.24 C7.57 25.4, 13.37 16.49, 28.06 0.54 M0.64 44.28 C12.79 29, 28.09 14.3, 38.69 0.51 M0.64 44.28 C9.26 33.75, 16.68 24.73, 38.69 0.51 M2.08 54.81 C14.75 40.59, 25.92 26.51, 49.32 0.47 M2.08 54.81 C13.45 41.2, 24.38 29.53, 49.32 0.47 M7.46 60.81 C23.2 42.13, 42.13 23.05, 59.95 0.44 M7.46 60.81 C18.52 48.26, 29.04 34.8, 59.95 0.44 M16.78 62.29 C28.85 48.86, 38.79 35.69, 69.92 1.16 M16.78 62.29 C30.11 46.78, 43.24 32.32, 69.92 1.16 M27.41 62.25 C47.18 38.33, 67.2 14.69, 80.55 1.12 M27.41 62.25 C41.4 45.84, 55.9 29.79, 80.55 1.12 M38.04 62.22 C47.45 48.47, 59.99 35.2, 91.18 1.09 M38.04 62.22 C50.06 46.7, 63.46 32.51, 91.18 1.09 M48.67 62.18 C64.02 44.17, 78.95 28.35, 101.81 1.05 M48.67 62.18 C59.18 48.96, 72.66 34.9, 101.81 1.05 M59.3 62.15 C76.6 42.49, 96.39 22.28, 112.44 1.02 M59.3 62.15 C77.88 40.42, 99.14 16.63, 112.44 1.02 M69.93 62.12 C88.42 39.59, 109.6 19.41, 123.07 0.98 M69.93 62.12 C91.6 37.15, 110.96 13.47, 123.07 0.98 M79.91 62.84 C100.01 40.27, 119.47 15.84, 133.7 0.95 M79.91 62.84 C97.48 41.85, 114.58 22.95, 133.7 0.95 M90.54 62.8 C105.65 47, 118.16 31.4, 143.68 1.67 M90.54 62.8 C102.95 50.43, 114.25 34.78, 143.68 1.67 M101.17 62.77 C118.59 42.92, 135.43 23.57, 152.99 3.14 M101.17 62.77 C119.85 41.03, 138.3 20.11, 152.99 3.14 M111.8 62.73 C127.44 44.37, 140.03 27.55, 158.38 9.15 M111.8 62.73 C121.97 51.2, 133.28 37.56, 158.38 9.15 M122.43 62.7 C133.88 46.16, 149.74 32.47, 159.17 20.43 M122.43 62.7 C130.54 52.19, 140.54 41.9, 159.17 20.43 M133.06 62.66 C140.33 54.24, 147.55 47.1, 159.3 32.48 M133.06 62.66 C139.94 54.83, 148.01 46.18, 159.3 32.48 M143.69 62.63 C146.59 60.06, 149.72 54.5, 158.78 45.27 M143.69 62.63 C148.12 56.09, 153.7 50.92, 158.78 45.27" stroke="#ff8787" stroke-width="1" fill="none"></path><path d="M15.68 0 C53.56 -1.56, 91.21 0.21, 143.82 0 M15.68 0 C58.45 -0.35, 101.79 -0.67, 143.82 0 M143.82 0 C155.99 1.7, 159.98 3.54, 159.5 15.68 M143.82 0 C153.32 -2.16, 159.41 6.31, 159.5 15.68 M159.5 15.68 C160.43 25.08, 158.5 32.78, 159.5 47.04 M159.5 15.68 C159.6 22.61, 159.7 28.11, 159.5 47.04 M159.5 47.04 C157.87 57, 153.21 61.99, 143.82 62.72 M159.5 47.04 C157.94 56, 156.36 62.15, 143.82 62.72 M143.82 62.72 C97.64 61.82, 54.26 62.98, 15.68 62.72 M143.82 62.72 C99.73 62.09, 55.97 61.83, 15.68 62.72 M15.68 62.72 C6.13 60.72, 0.62 55.74, 0 47.04 M15.68 62.72 C6.57 62.94, 1.76 59.76, 0 47.04 M0 47.04 C-1.5 38.71, 1.77 27.46, 0 15.68 M0 47.04 C0.07 35.27, 0.34 22.82, 0 15.68 M0 15.68 C1.09 4.92, 3.93 1.7, 15.68 0 M0 15.68 C0.18 4.24, 6.95 -0.92, 15.68 0" stroke="#e03131" stroke-width="2" fill="none"></path></g><g transform="translate(1041.8324315042773 677.6724250449923) rotate(0 39.65997314453125 12.5)"><text x="39.65997314453125" y="17.52" font-family="Virgil, Segoe UI Emoji" font-size="20px" fill="#1e1e1e" text-anchor="middle" style="white-space: pre;" direction="ltr" dominant-baseline="alphabetic">Backend</text></g><g stroke-linecap="round" transform="translate(1187.2437930869783 658.814585504273) rotate(0 79.75018202865067 31.357839540719283)"><path d="M4.17 3.63 C4.17 3.63, 4.17 3.63, 4.17 3.63 M4.17 3.63 C4.17 3.63, 4.17 3.63, 4.17 3.63 M0.37 20.2 C5.91 12.01, 12.86 6.11, 17.43 0.57 M0.37 20.2 C4.81 13.7, 9.66 8.26, 17.43 0.57 M0.5 32.24 C6.6 22.45, 12.94 16.18, 28.06 0.54 M0.5 32.24 C5.99 24.99, 12.2 18.81, 28.06 0.54 M0.64 44.28 C16.29 29.47, 29.68 10.44, 38.69 0.51 M0.64 44.28 C9.04 35.87, 16.83 26.8, 38.69 0.51 M2.08 54.81 C20.78 32.22, 37.61 13.65, 49.32 0.47 M2.08 54.81 C17.42 37.39, 33.19 19.66, 49.32 0.47 M7.46 60.81 C24 40.87, 42.16 20.93, 59.95 0.44 M7.46 60.81 C26.24 39.94, 43.63 18.84, 59.95 0.44 M16.78 62.29 C32.9 47.68, 44.2 28.96, 69.92 1.16 M16.78 62.29 C35.06 41.66, 51.8 22.41, 69.92 1.16 M27.41 62.25 C43.16 47.43, 56.54 26.77, 80.55 1.12 M27.41 62.25 C43.76 42.29, 60.94 24.06, 80.55 1.12 M38.04 62.22 C54.9 38.89, 76.71 20.7, 91.18 1.09 M38.04 62.22 C50.01 47.68, 64.66 31.21, 91.18 1.09 M48.67 62.18 C65.11 42.49, 80.21 28.29, 101.81 1.05 M48.67 62.18 C65.39 42.9, 81.22 23.58, 101.81 1.05 M59.3 62.15 C76.63 41.23, 94.35 25.45, 112.44 1.02 M59.3 62.15 C73.01 46.65, 87.07 30.76, 112.44 1.02 M69.93 62.12 C85.02 43.76, 100.8 27.74, 123.07 0.98 M69.93 62.12 C85.18 44.34, 99.81 26.98, 123.07 0.98 M79.91 62.84 C95.88 41.51, 113.84 21.91, 133.7 0.95 M79.91 62.84 C93.02 50.06, 104.93 34.55, 133.7 0.95 M90.54 62.8 C105.82 43.67, 122.51 28.03, 143.68 1.67 M90.54 62.8 C110.76 37.73, 132.76 13.54, 143.68 1.67 M101.17 62.77 C120.35 39.39, 138.94 18.34, 152.99 3.14 M101.17 62.77 C121.66 39.2, 141.02 16.86, 152.99 3.14 M111.8 62.73 C122.24 47.46, 136.85 34.82, 158.38 9.15 M111.8 62.73 C127.16 44.22, 143.53 26.72, 158.38 9.15 M122.43 62.7 C131.62 52.17, 141.6 39.3, 159.17 20.43 M122.43 62.7 C131.42 52.61, 140.55 41.66, 159.17 20.43 M133.06 62.66 C137.35 56.72, 141.76 50.71, 159.3 32.48 M133.06 62.66 C144.39 49.9, 155.17 39.6, 159.3 32.48 M143.69 62.63 C150.14 55.05, 155.4 49.26, 158.78 45.27 M143.69 62.63 C147.88 56.15, 154.26 51.78, 158.78 45.27" stroke="#ff8787" stroke-width="1" fill="none"></path><path d="M15.68 0 C56.65 -1.59, 95.27 -1.15, 143.82 0 M15.68 0 C60.38 0.64, 103.13 0.78, 143.82 0 M143.82 0 C152.66 0.29, 160.43 5.31, 159.5 15.68 M143.82 0 C152.88 0.01, 159.94 5.49, 159.5 15.68 M159.5 15.68 C158.39 24.94, 159.05 34.43, 159.5 47.04 M159.5 15.68 C159.22 23.91, 160.07 32.45, 159.5 47.04 M159.5 47.04 C159.51 56.36, 152.81 64.66, 143.82 62.72 M159.5 47.04 C160.62 58.69, 156.5 63.34, 143.82 62.72 M143.82 62.72 C104.29 62.17, 66.19 61.78, 15.68 62.72 M143.82 62.72 C94.58 62.29, 45.27 62.92, 15.68 62.72 M15.68 62.72 C6.64 62.12, 1.72 58.17, 0 47.04 M15.68 62.72 C6.96 60.81, -2.13 59.15, 0 47.04 M0 47.04 C-0.54 35.46, 1.78 24.88, 0 15.68 M0 47.04 C-0.98 41.29, 0.47 34.99, 0 15.68 M0 15.68 C-0.82 6.08, 6.02 -1.37, 15.68 0 M0 15.68 C0.74 5.8, 6.85 -1.66, 15.68 0" stroke="#e03131" stroke-width="2" fill="none"></path></g><g transform="translate(1227.3340019710995 677.6724250449923) rotate(0 39.65997314453125 12.5)"><text x="39.65997314453125" y="17.52" font-family="Virgil, Segoe UI Emoji" font-size="20px" fill="#1e1e1e" text-anchor="middle" style="white-space: pre;" direction="ltr" dominant-baseline="alphabetic">Backend</text></g><g stroke-linecap="round" transform="translate(1377.4565145497763 658.814585504273) rotate(0 79.75018202865067 31.357839540719283)"><path d="M4.17 3.63 C4.17 3.63, 4.17 3.63, 4.17 3.63 M4.17 3.63 C4.17 3.63, 4.17 3.63, 4.17 3.63 M4.31 15.67 C6.66 12.92, 7.81 8.73, 16.77 1.33 M4.31 15.67 C6.57 13.12, 10.53 9.36, 16.77 1.33 M4.44 27.71 C7.9 23.58, 13.1 15.88, 27.4 1.29 M4.44 27.71 C10.27 22.56, 14.54 16.75, 27.4 1.29 M4.57 39.75 C14.6 27.93, 26.6 13.98, 38.03 1.26 M4.57 39.75 C16.05 26.56, 26.78 14.56, 38.03 1.26 M3.39 53.3 C15.1 41.37, 23.7 28.26, 48.66 1.23 M3.39 53.3 C17.18 38.09, 29.79 21.68, 48.66 1.23 M6.81 61.57 C20.21 47.46, 30.25 33.44, 59.29 1.19 M6.81 61.57 C21.13 44.98, 35.06 29.53, 59.29 1.19 M13.5 66.06 C34.52 42.9, 52.9 20.98, 69.92 1.16 M13.5 66.06 C28.19 48.6, 42.62 32.74, 69.92 1.16 M24.13 66.03 C46.67 41.9, 69.34 15.59, 79.9 1.88 M24.13 66.03 C37.43 51.06, 50.93 34.87, 79.9 1.88 M34.76 65.99 C45.77 51.8, 58.67 34.64, 90.53 1.84 M34.76 65.99 C53.38 44.28, 72.28 23.06, 90.53 1.84 M45.39 65.96 C57.31 52.09, 70.11 38.87, 101.16 1.81 M45.39 65.96 C63.43 45.53, 80.62 25.92, 101.16 1.81 M56.02 65.92 C65.99 51.78, 76.8 39.08, 111.79 1.77 M56.02 65.92 C71.59 48.17, 87.23 29.7, 111.79 1.77 M66 66.64 C78.15 51.77, 89.99 37.14, 122.42 1.74 M66 66.64 C80.13 51.63, 93.79 35.21, 122.42 1.74 M76.63 66.61 C89.28 50.8, 103.55 36.74, 133.05 1.7 M76.63 66.61 C98.24 41.75, 120.36 15.93, 133.05 1.7 M87.26 66.58 C102.83 50.73, 116.04 32.78, 143.68 1.67 M87.26 66.58 C102.49 50.14, 117.43 33.33, 143.68 1.67 M97.89 66.54 C111.03 53.27, 119.44 40.42, 152.99 3.14 M97.89 66.54 C110.88 50.76, 124.7 35.64, 152.99 3.14 M108.52 66.51 C119.46 54.14, 130.57 41.65, 159.69 7.64 M108.52 66.51 C120.96 51.25, 133.61 35.96, 159.69 7.64 M119.15 66.47 C134.67 49.58, 149.68 29.3, 163.1 15.91 M119.15 66.47 C134.75 48.24, 152.55 28.53, 163.1 15.91 M129.78 66.44 C142.8 52.34, 150.6 42.94, 163.23 27.95 M129.78 66.44 C137.52 57.76, 144.49 49.72, 163.23 27.95 M139.75 67.16 C145.99 60.46, 151.1 52.41, 162.71 40.74 M139.75 67.16 C144.04 62.38, 148.41 56.36, 162.71 40.74" stroke="#ff8787" stroke-width="1" fill="none"></path><path d="M15.68 0 C50.78 -0.41, 82.36 1.12, 143.82 0 M15.68 0 C47.51 0.55, 81.41 0.45, 143.82 0 M143.82 0 C153.06 0.01, 159.88 5.45, 159.5 15.68 M143.82 0 C154.8 2.07, 160.84 3.62, 159.5 15.68 M159.5 15.68 C158.47 21.73, 157.39 31.83, 159.5 47.04 M159.5 15.68 C159.78 25.35, 159.04 37.13, 159.5 47.04 M159.5 47.04 C160.47 58.53, 156.21 63.26, 143.82 62.72 M159.5 47.04 C159.55 56.37, 155.47 61.79, 143.82 62.72 M143.82 62.72 C114.82 62.93, 81.93 61.72, 15.68 62.72 M143.82 62.72 C107.29 63.1, 70.21 63.74, 15.68 62.72 M15.68 62.72 C6.73 61.06, -1.85 58.94, 0 47.04 M15.68 62.72 C6.07 63.31, -1.03 56.96, 0 47.04 M0 47.04 C-2.14 40.84, 0.03 29.96, 0 15.68 M0 47.04 C-0.64 35.71, 0.17 22.84, 0 15.68 M0 15.68 C0.65 5.72, 6.64 -1.44, 15.68 0 M0 15.68 C-0.92 4.94, 3.55 -0.28, 15.68 0" stroke="#e03131" stroke-width="2" fill="none"></path></g><g transform="translate(1417.5467234338976 677.6724250449923) rotate(0 39.65997314453125 12.5)"><text x="39.65997314453125" y="17.52" font-family="Virgil, Segoe UI Emoji" font-size="20px" fill="#1e1e1e" text-anchor="middle" style="white-space: pre;" direction="ltr" dominant-baseline="alphabetic">Backend</text></g><g stroke-linecap="round" transform="translate(1568.2581298870646 658.814585504273) rotate(0 79.75018202865067 31.357839540719283)"><path d="M4.17 3.63 C4.17 3.63, 4.17 3.63, 4.17 3.63 M4.17 3.63 C4.17 3.63, 4.17 3.63, 4.17 3.63 M0.37 20.2 C4.02 12.84, 9.91 7.2, 17.43 0.57 M0.37 20.2 C5.26 12.9, 11.95 5.89, 17.43 0.57 M0.5 32.24 C9.88 20.58, 21.59 9.29, 28.06 0.54 M0.5 32.24 C11.67 20.59, 20.7 6.97, 28.06 0.54 M0.64 44.28 C16.58 28.42, 31.53 11.22, 38.69 0.51 M0.64 44.28 C9.16 32.74, 19.82 22.85, 38.69 0.51 M2.08 54.81 C18.58 37, 34.79 18.43, 49.32 0.47 M2.08 54.81 C19.34 35.62, 36.33 15.48, 49.32 0.47 M7.46 60.81 C23.89 40.84, 40.25 22.15, 59.95 0.44 M7.46 60.81 C23.54 42.64, 37.28 26.11, 59.95 0.44 M16.78 62.29 C30.91 43.8, 48.03 27.82, 69.92 1.16 M16.78 62.29 C31.89 45.76, 43.97 30.06, 69.92 1.16 M27.41 62.25 C43.98 42.53, 63.86 21.62, 80.55 1.12 M27.41 62.25 C43.61 43.41, 62.67 21.96, 80.55 1.12 M38.04 62.22 C57.06 43.09, 72.39 21.24, 91.18 1.09 M38.04 62.22 C51.27 45.96, 67.19 29.91, 91.18 1.09 M48.67 62.18 C64.86 42.19, 80.68 24.81, 101.81 1.05 M48.67 62.18 C62.15 46.4, 78.13 28.7, 101.81 1.05 M59.3 62.15 C73.52 46.49, 87.25 29.45, 112.44 1.02 M59.3 62.15 C76.79 42.06, 95.28 20.67, 112.44 1.02 M69.93 62.12 C84.55 43.13, 100.29 27.07, 123.07 0.98 M69.93 62.12 C86.4 42.23, 103.88 22.02, 123.07 0.98 M79.91 62.84 C98.19 45.19, 111.27 25.17, 133.7 0.95 M79.91 62.84 C96.82 43.22, 115.46 23.78, 133.7 0.95 M90.54 62.8 C106.5 43.62, 123.94 24.87, 143.68 1.67 M90.54 62.8 C107 42.59, 124.91 22.44, 143.68 1.67 M101.17 62.77 C115.14 44.15, 131.9 27.59, 152.99 3.14 M101.17 62.77 C112.48 49.68, 125.21 35, 152.99 3.14 M111.8 62.73 C123.93 48.85, 137.9 31.84, 158.38 9.15 M111.8 62.73 C125.06 47.96, 136.95 34.22, 158.38 9.15 M122.43 62.7 C137.72 45.55, 151.54 29.6, 159.17 20.43 M122.43 62.7 C135.92 46.33, 149.57 32.6, 159.17 20.43 M133.06 62.66 C137.18 57.83, 146.3 51.16, 159.3 32.48 M133.06 62.66 C140.37 53.59, 148.69 44.57, 159.3 32.48 M143.69 62.63 C146.4 59.25, 153.35 51.79, 158.78 45.27 M143.69 62.63 C149.74 55.41, 155.37 48.77, 158.78 45.27" stroke="#ff8787" stroke-width="1" fill="none"></path><path d="M15.68 0 C49.69 -2.59, 84.88 -2.24, 143.82 0 M15.68 0 C55.36 -0.05, 96.44 0.06, 143.82 0 M143.82 0 C154.73 1.8, 160.67 3.83, 159.5 15.68 M143.82 0 C153.27 -0.85, 157.77 4.17, 159.5 15.68 M159.5 15.68 C159.72 23.72, 160.86 28.25, 159.5 47.04 M159.5 15.68 C159.76 23.84, 160.24 31.22, 159.5 47.04 M159.5 47.04 C159.55 56.52, 155.31 61.91, 143.82 62.72 M159.5 47.04 C158.11 57.29, 152.43 64.66, 143.82 62.72 M143.82 62.72 C97.26 62.62, 52.14 64.15, 15.68 62.72 M143.82 62.72 C109.92 62.32, 73.59 63.87, 15.68 62.72 M15.68 62.72 C5.96 63.23, -0.89 57.03, 0 47.04 M15.68 62.72 C4.05 64.85, -1.2 55.36, 0 47.04 M0 47.04 C1.45 36.56, 1.86 22.36, 0 15.68 M0 47.04 C0.2 36.54, 0.58 24.83, 0 15.68 M0 15.68 C-0.8 4.97, 3.77 -0.24, 15.68 0 M0 15.68 C1.78 4.03, 3.95 0.41, 15.68 0" stroke="#e03131" stroke-width="2" fill="none"></path></g><g transform="translate(1608.3483387711858 677.6724250449923) rotate(0 39.65997314453125 12.5)"><text x="39.65997314453125" y="17.52" font-family="Virgil, Segoe UI Emoji" font-size="20px" fill="#1e1e1e" text-anchor="middle" style="white-space: pre;" direction="ltr" dominant-baseline="alphabetic">Backend</text></g><g stroke-linecap="round"><g transform="translate(869.9263345417021 390.07717909556686) rotate(0 -349.40518343162876 130.02523124178657)"><path d="M0.21 0.39 C-116.45 43.66, -583.16 216.11, -699.66 259.55 M-1.13 -0.45 C-117.45 42.99, -581 217.55, -697.39 260.83" stroke="#1e1e1e" stroke-width="2" fill="none"></path></g><g transform="translate(869.9263345417021 390.07717909556686) rotate(0 -349.40518343162876 130.02523124178657)"><path d="M-678.39 244.58 C-683.96 248.5, -691.64 255.29, -697.39 260.83 M-678.39 244.58 C-684.75 251.17, -693.5 257.93, -697.39 260.83" stroke="#1e1e1e" stroke-width="2" fill="none"></path></g><g transform="translate(869.9263345417021 390.07717909556686) rotate(0 -349.40518343162876 130.02523124178657)"><path d="M-672.39 260.6 C-679.91 259.3, -689.54 260.86, -697.39 260.83 M-672.39 260.6 C-681.14 261.09, -692.19 261.72, -697.39 260.83" stroke="#1e1e1e" stroke-width="2" fill="none"></path></g></g><mask></mask><g stroke-linecap="round"><g transform="translate(870.2372004040844 391.2625637745924) rotate(0 -272.22533318766 129.43253890227385)"><path d="M-0.35 0.73 C-91.07 43.77, -452.8 215.88, -543.58 258.81 M1.67 0.07 C-89.21 43.25, -452.78 217.11, -544.08 260.32" stroke="#1e1e1e" stroke-width="2" fill="none"></path></g><g transform="translate(870.2372004040844 391.2625637745924) rotate(0 -272.22533318766 129.43253890227385)"><path d="M-526.54 242.5 C-531.6 250.36, -539.27 254.41, -544.08 260.32 M-526.54 242.5 C-531.42 247.78, -535.79 251.28, -544.08 260.32" stroke="#1e1e1e" stroke-width="2" fill="none"></path></g><g transform="translate(870.2372004040844 391.2625637745924) rotate(0 -272.22533318766 129.43253890227385)"><path d="M-519.19 257.94 C-527 260.18, -537.33 258.62, -544.08 260.32 M-519.19 257.94 C-526.05 259.27, -532.29 258.84, -544.08 260.32" stroke="#1e1e1e" stroke-width="2" fill="none"></path></g></g><mask></mask><g stroke-linecap="round"><g transform="translate(872.9729514916362 388.91679133664354) rotate(0 -176.11759294926378 129.42763737225266)"><path d="M-0.59 -0.57 C-59.33 42.64, -294.34 215.62, -352.88 258.73 M1.31 1.74 C-57 45.19, -291.55 217.33, -350.5 260.2" stroke="#1e1e1e" stroke-width="2" fill="none"></path></g><g transform="translate(872.9729514916362 388.91679133664354) rotate(0 -176.11759294926378 129.42763737225266)"><path d="M-336.59 239.43 C-341.31 243.78, -344.26 251.01, -350.5 260.2 M-336.59 239.43 C-339.4 245.32, -342.47 250.12, -350.5 260.2" stroke="#1e1e1e" stroke-width="2" fill="none"></path></g><g transform="translate(872.9729514916362 388.91679133664354) rotate(0 -176.11759294926378 129.42763737225266)"><path d="M-326.49 253.23 C-333.83 253.89, -339.44 257.46, -350.5 260.2 M-326.49 253.23 C-331.63 255.98, -337.06 257.57, -350.5 260.2" stroke="#1e1e1e" stroke-width="2" fill="none"></path></g></g><mask></mask><g stroke-linecap="round"><g transform="translate(874.532524016231 390.0977642149021) rotate(0 -80.24252539992085 129.42604480762105)"><path d="M0.11 -0.13 C-26.91 43.27, -134.11 216.92, -160.94 259.96 M-1.3 -1.25 C-28.61 41.88, -135.36 215.04, -162.12 258.43" stroke="#1e1e1e" stroke-width="2" fill="none"></path></g><g transform="translate(874.532524016231 390.0977642149021) rotate(0 -80.24252539992085 129.42604480762105)"><path d="M-157.07 233.94 C-159.37 242.85, -159.29 252.58, -162.12 258.43 M-157.07 233.94 C-159.2 238.98, -159.98 245.09, -162.12 258.43" stroke="#1e1e1e" stroke-width="2" fill="none"></path></g><g transform="translate(874.532524016231 390.0977642149021) rotate(0 -80.24252539992085 129.42604480762105)"><path d="M-142.51 242.92 C-150.52 248.3, -156.18 254.49, -162.12 258.43 M-142.51 242.92 C-148.18 245.81, -152.47 249.76, -162.12 258.43" stroke="#1e1e1e" stroke-width="2" fill="none"></path></g></g><mask></mask><g stroke-linecap="round"><g transform="translate(872.3296619993525 392.4433254790964) rotate(0 6.660130775037032 125.89768867753259)"><path d="M-1.05 0.64 C1.23 42.44, 10.66 209.65, 13.04 251.37 M0.61 -0.06 C2.75 41.85, 9.98 210.7, 11.94 252.69" stroke="#1e1e1e" stroke-width="2" fill="none"></path></g><g transform="translate(872.3296619993525 392.4433254790964) rotate(0 6.660130775037032 125.89768867753259)"><path d="M2.35 229.6 C5.93 234.99, 6.56 241.04, 11.94 252.69 M2.35 229.6 C4.37 235.5, 6.57 240.56, 11.94 252.69" stroke="#1e1e1e" stroke-width="2" fill="none"></path></g><g transform="translate(872.3296619993525 392.4433254790964) rotate(0 6.660130775037032 125.89768867753259)"><path d="M19.43 228.84 C18.74 234.27, 15.09 240.51, 11.94 252.69 M19.43 228.84 C17.51 235.08, 15.77 240.31, 11.94 252.69" stroke="#1e1e1e" stroke-width="2" fill="none"></path></g></g><mask></mask><g stroke-linecap="round"><g transform="translate(868.9428519167814 393.5238604505761) rotate(0 108.56602882222614 127.71299668978412)"><path d="M0.24 -1.19 C36.41 41.56, 181.69 213.49, 217.96 256.32 M-1.1 0.8 C34.91 43.23, 181.02 212.52, 217.45 254.67" stroke="#1e1e1e" stroke-width="2" fill="none"></path></g><g transform="translate(868.9428519167814 393.5238604505761) rotate(0 108.56602882222614 127.71299668978412)"><path d="M195.63 242.47 C201.84 248.41, 213.53 252.87, 217.45 254.67 M195.63 242.47 C203.54 246.09, 209.56 249.99, 217.45 254.67" stroke="#1e1e1e" stroke-width="2" fill="none"></path></g><g transform="translate(868.9428519167814 393.5238604505761) rotate(0 108.56602882222614 127.71299668978412)"><path d="M208.57 231.3 C209.9 241.46, 216.71 250.13, 217.45 254.67 M208.57 231.3 C212.2 238.66, 213.93 246.27, 217.45 254.67" stroke="#1e1e1e" stroke-width="2" fill="none"></path></g></g><mask></mask><g stroke-linecap="round"><g transform="translate(864.6968586118419 387.49523870387804) rotate(0 198.77451977914825 130.1384136886353)"><path d="M-0.06 0.75 C66.03 44.12, 331.15 216.07, 397.33 259.27 M-1.55 0.09 C64.29 43.67, 330.02 216.78, 396.27 260.28" stroke="#1e1e1e" stroke-width="2" fill="none"></path></g><g transform="translate(864.6968586118419 387.49523870387804) rotate(0 198.77451977914825 130.1384136886353)"><path d="M371.93 254.58 C382.08 256.32, 388.1 257.87, 396.27 260.28 M371.93 254.58 C378.72 257.09, 385.29 257.71, 396.27 260.28" stroke="#1e1e1e" stroke-width="2" fill="none"></path></g><g transform="translate(864.6968586118419 387.49523870387804) rotate(0 198.77451977914825 130.1384136886353)"><path d="M381.29 240.26 C387.88 247.26, 390.46 254.08, 396.27 260.28 M381.29 240.26 C385.4 246.59, 389.44 251.1, 396.27 260.28" stroke="#1e1e1e" stroke-width="2" fill="none"></path></g></g><mask></mask><g stroke-linecap="round"><g transform="translate(862.5964738260227 388.6299842000858) rotate(0 298.64037866529543 130.15993481502926)"><path d="M0.9 -0.25 C100.53 43.21, 497.89 216.06, 597.33 259.58 M-0.09 -1.43 C99.42 42.27, 496.9 217.35, 596.41 260.72" stroke="#1e1e1e" stroke-width="2" fill="none"></path></g><g transform="translate(862.5964738260227 388.6299842000858) rotate(0 298.64037866529543 130.15993481502926)"><path d="M571.46 259.12 C577.58 259.44, 583.31 260.24, 596.41 260.72 M571.46 259.12 C579.25 260.05, 589.61 260.23, 596.41 260.72" stroke="#1e1e1e" stroke-width="2" fill="none"></path></g><g transform="translate(862.5964738260227 388.6299842000858) rotate(0 298.64037866529543 130.15993481502926)"><path d="M578.33 243.46 C582.49 247.94, 586.42 252.86, 596.41 260.72 M578.33 243.46 C583.83 249.8, 591.81 255.39, 596.41 260.72" stroke="#1e1e1e" stroke-width="2" fill="none"></path></g></g><mask></mask><g stroke-linecap="round"><g transform="translate(863.577775618829 386.2877964184987) rotate(0 384.538952428662 129.5643470823294)"><path d="M-0.13 0.71 C128.12 44.07, 640.75 216.13, 768.94 259.03 M-1.65 0.03 C126.47 43.69, 639.62 217.37, 767.92 260.52" stroke="#1e1e1e" stroke-width="2" fill="none"></path></g><g transform="translate(863.577775618829 386.2877964184987) rotate(0 384.538952428662 129.5643470823294)"><path d="M742.93 261.11 C750.52 260.75, 755.6 260.69, 767.92 260.52 M742.93 261.11 C748.39 261.4, 753.9 260.15, 767.92 260.52" stroke="#1e1e1e" stroke-width="2" fill="none"></path></g><g transform="translate(863.577775618829 386.2877964184987) rotate(0 384.538952428662 129.5643470823294)"><path d="M748.4 244.9 C754.44 248.7, 758.11 252.8, 767.92 260.52 M748.4 244.9 C752.57 248.72, 756.9 250.95, 767.92 260.52" stroke="#1e1e1e" stroke-width="2" fill="none"></path></g></g><mask></mask><g stroke-linecap="round" transform="translate(1064.3707507320796 92.24492406858258) rotate(0 139.22846335293252 59.624745516615064)"><path d="M4.22 11.62 C4.22 11.62, 4.22 11.62, 4.22 11.62 M4.22 11.62 C4.22 11.62, 4.22 11.62, 4.22 11.62 M1.07 27.43 C7.95 19.94, 14.39 13.06, 24.69 0.26 M1.07 27.43 C6.32 19.77, 13.24 14.66, 24.69 0.26 M0.55 40.23 C11.95 24.82, 26.79 9.64, 35.32 0.23 M0.55 40.23 C6.84 32.53, 13.65 23.31, 35.32 0.23 M0.68 52.27 C14.99 32.68, 32.58 15.41, 45.95 0.19 M0.68 52.27 C12.95 37.64, 26.52 23.77, 45.95 0.19 M0.81 64.31 C12.68 47.91, 24.82 35.43, 56.58 0.16 M0.81 64.31 C17.98 43.53, 35.81 24.1, 56.58 0.16 M0.95 76.35 C24.62 47.28, 48.41 22.42, 67.21 0.12 M0.95 76.35 C25.65 46.66, 52.12 17.27, 67.21 0.12 M1.08 88.39 C19.41 66.96, 35.27 49.56, 77.84 0.09 M1.08 88.39 C31.37 53.18, 61.18 18.74, 77.84 0.09 M1.87 99.68 C32.22 65.05, 63.89 28.44, 88.47 0.05 M1.87 99.68 C27.89 68.77, 54.68 38.89, 88.47 0.05 M4.63 108.7 C24.9 85.74, 45.59 61.89, 99.1 0.02 M4.63 108.7 C40.8 66.39, 76.68 26.57, 99.1 0.02 M10.66 113.95 C47.97 74.03, 81.37 33.24, 109.73 -0.01 M10.66 113.95 C29.69 90.41, 50.44 66.13, 109.73 -0.01 M18.01 117.69 C53.42 74.46, 92.25 35.85, 120.36 -0.05 M18.01 117.69 C49.48 81.62, 81.8 44.24, 120.36 -0.05 M27.33 119.16 C54.25 87.79, 84.62 54.36, 130.99 -0.08 M27.33 119.16 C49.34 91.29, 71.71 66.52, 130.99 -0.08 M37.96 119.13 C62.95 88.37, 88.31 61.43, 141.62 -0.12 M37.96 119.13 C61.76 90.63, 85.84 63.83, 141.62 -0.12 M48.59 119.09 C84.09 73.55, 122.57 30.52, 152.25 -0.15 M48.59 119.09 C81.72 81.19, 115.22 42.12, 152.25 -0.15 M59.22 119.06 C81.68 95.11, 101.85 69.15, 162.22 0.57 M59.22 119.06 C88.62 84.15, 118.45 51, 162.22 0.57 M69.85 119.02 C107.57 74.78, 146.03 32.04, 172.85 0.53 M69.85 119.02 C95.21 90.32, 120.32 62.35, 172.85 0.53 M80.48 118.99 C121.42 72.38, 157.47 29.38, 183.48 0.5 M80.48 118.99 C102.34 94.75, 124.6 67.64, 183.48 0.5 M91.11 118.95 C110.79 93.04, 133.95 68.64, 194.11 0.46 M91.11 118.95 C128.75 73.97, 168.41 28.16, 194.11 0.46 M101.74 118.92 C124.15 94.29, 146.36 71.1, 204.74 0.43 M101.74 118.92 C128.56 86.49, 155.88 56.15, 204.74 0.43 M111.72 119.64 C138.33 89.59, 162.9 59.31, 215.37 0.4 M111.72 119.64 C137.02 89.1, 163.23 60.8, 215.37 0.4 M122.35 119.6 C162.62 73.9, 203.94 25.75, 226 0.36 M122.35 119.6 C151.08 86.63, 179.93 52.46, 226 0.36 M132.98 119.57 C163.8 87.03, 192.75 51.93, 236.63 0.33 M132.98 119.57 C155.92 93.17, 181.66 64.97, 236.63 0.33 M143.61 119.54 C182.65 76.99, 217.39 34.73, 247.26 0.29 M143.61 119.54 C165.47 92.05, 188.45 66.26, 247.26 0.29 M154.24 119.5 C186.26 79.87, 220.18 42.55, 257.24 1.01 M154.24 119.5 C185.8 83.98, 215.66 49.92, 257.24 1.01 M164.87 119.47 C196.91 81.95, 232.34 43.71, 265.24 4 M164.87 119.47 C186.85 91.95, 209.93 67.26, 265.24 4 M175.5 119.43 C212.9 76.98, 251.94 32.49, 271.28 9.24 M175.5 119.43 C212.67 75.31, 252.13 31.24, 271.28 9.24 M186.13 119.4 C210.77 93.57, 234.08 66.01, 276.01 16 M186.13 119.4 C216.76 84.04, 247.53 47.25, 276.01 16 M196.76 119.36 C224.92 87.19, 253.62 51.7, 278.11 25.78 M196.76 119.36 C219.88 90.28, 244.84 63.46, 278.11 25.78 M207.39 119.33 C229.63 94.61, 255.12 66.69, 278.24 37.82 M207.39 119.33 C225.2 97.85, 242.71 77.21, 278.24 37.82 M218.02 119.29 C234.46 101.12, 252.77 77.91, 278.38 49.86 M218.02 119.29 C239.93 94.32, 262.8 68.36, 278.38 49.86 M228.65 119.26 C240.18 107.54, 251.7 93.58, 278.51 61.9 M228.65 119.26 C242.46 102.79, 256.25 87.3, 278.51 61.9 M239.28 119.23 C251.73 104.73, 263.85 91.02, 278.64 73.94 M239.28 119.23 C254.36 100.95, 268.59 85.42, 278.64 73.94 M249.25 119.95 C260.07 107.78, 266.97 97.39, 278.77 85.98 M249.25 119.95 C261.38 106.8, 272.83 92.98, 278.77 85.98 M261.85 117.65 C267.9 112.32, 270.98 105.38, 277.6 99.53 M261.85 117.65 C266.51 111.62, 271.86 107.34, 277.6 99.53" stroke="#ff8787" stroke-width="1" fill="none"></path><path d="M29.81 0 C78.74 -3.02, 130.11 -3.33, 248.64 0 M29.81 0 C112.3 -1.84, 194.77 -0.36, 248.64 0 M248.64 0 C267.5 -1.57, 279.82 11.52, 278.46 29.81 M248.64 0 C270.72 2.1, 276.43 9.41, 278.46 29.81 M278.46 29.81 C279.69 46.32, 278.86 64.6, 278.46 89.44 M278.46 29.81 C278.8 47.91, 278.05 66.85, 278.46 89.44 M278.46 89.44 C278.96 109.57, 269.24 120.57, 248.64 119.25 M278.46 89.44 C279.21 109.64, 270.5 119.07, 248.64 119.25 M248.64 119.25 C199.91 119.07, 150.53 120.98, 29.81 119.25 M248.64 119.25 C195.24 117.23, 140.3 118.19, 29.81 119.25 M29.81 119.25 C10.28 118.1, -1.3 109.07, 0 89.44 M29.81 119.25 C8.4 120.51, 2.22 107.4, 0 89.44 M0 89.44 C1.41 75.59, -0.35 62.01, 0 29.81 M0 89.44 C0.09 74.76, -1.1 59.66, 0 29.81 M0 29.81 C1.76 8.33, 10.52 -1.57, 29.81 0 M0 29.81 C-2.22 11.37, 8.37 -0.31, 29.81 0" stroke="#e03131" stroke-width="2" fill="none"></path></g><g transform="translate(1155.4312300762213 129.36966958519747) rotate(0 48.16798400878906 22.5)"><text x="48.16798400878906" y="31.536" font-family="Virgil, Segoe UI Emoji" font-size="36px" fill="#1e1e1e" text-anchor="middle" style="white-space: pre;" direction="ltr" dominant-baseline="alphabetic">Proxy</text></g><g stroke-linecap="round" transform="translate(1064.370750732076 250.06848243400054) rotate(0 139.22846335293252 59.624745516615064)"><path d="M4.22 11.62 C4.22 11.62, 4.22 11.62, 4.22 11.62 M4.22 11.62 C4.22 11.62, 4.22 11.62, 4.22 11.62 M1.07 27.43 C9.07 18.01, 13.31 12.39, 24.69 0.26 M1.07 27.43 C6.39 20.47, 13.44 12.95, 24.69 0.26 M0.55 40.23 C13.33 26.34, 24.37 13.58, 35.32 0.23 M0.55 40.23 C14.42 23.29, 28.01 7.98, 35.32 0.23 M0.68 52.27 C14.81 36.96, 26.36 21.72, 45.95 0.19 M0.68 52.27 C11.6 39.87, 24.22 27.34, 45.95 0.19 M0.81 64.31 C16.54 46.51, 31.59 29.24, 56.58 0.16 M0.81 64.31 C21.72 41.51, 43.91 16.72, 56.58 0.16 M0.95 76.35 C18.82 58.33, 34.29 36.16, 67.21 0.12 M0.95 76.35 C27.51 45.22, 54.58 16.41, 67.21 0.12 M1.08 88.39 C22.11 64.14, 39.55 41.1, 77.84 0.09 M1.08 88.39 C26.58 58.37, 51.44 29.24, 77.84 0.09 M1.87 99.68 C32.1 66.12, 62.21 33.03, 88.47 0.05 M1.87 99.68 C35.33 63.21, 67.57 25.29, 88.47 0.05 M4.63 108.7 C34.03 73.09, 68.31 35.66, 99.1 0.02 M4.63 108.7 C28.38 82.01, 50.49 55.39, 99.1 0.02 M10.66 113.95 C40.24 79.75, 69.79 42.05, 109.73 -0.01 M10.66 113.95 C43.32 76.23, 75.06 39.77, 109.73 -0.01 M18.01 117.69 C49.59 80.44, 79.51 43.45, 120.36 -0.05 M18.01 117.69 C49.12 82.33, 79.2 47.52, 120.36 -0.05 M27.33 119.16 C70.03 72.65, 108.49 26.12, 130.99 -0.08 M27.33 119.16 C67.14 71.24, 107.79 24.87, 130.99 -0.08 M37.96 119.13 C76.91 78.37, 111.87 32.89, 141.62 -0.12 M37.96 119.13 C64.94 88.61, 90.49 58.9, 141.62 -0.12 M48.59 119.09 C70.19 91.96, 93.96 68.4, 152.25 -0.15 M48.59 119.09 C90.78 70.67, 132.27 22.19, 152.25 -0.15 M59.22 119.06 C89.15 86.77, 114.63 51.94, 162.22 0.57 M59.22 119.06 C88.52 85.07, 118.4 50.63, 162.22 0.57 M69.85 119.02 C97.17 88.78, 125.82 54.1, 172.85 0.53 M69.85 119.02 C109.85 74.54, 149.34 29.33, 172.85 0.53 M80.48 118.99 C122.53 70.59, 163.36 26.21, 183.48 0.5 M80.48 118.99 C117.61 76.64, 154.67 33.94, 183.48 0.5 M91.11 118.95 C116.65 89.6, 140.28 61.29, 194.11 0.46 M91.11 118.95 C117.82 89.76, 143.4 60.85, 194.11 0.46 M101.74 118.92 C130.64 86.14, 159.85 51.86, 204.74 0.43 M101.74 118.92 C124.84 91.12, 146.34 65.1, 204.74 0.43 M111.72 119.64 C141.34 84.05, 175.25 49.05, 215.37 0.4 M111.72 119.64 C142.67 82.77, 174.62 45.57, 215.37 0.4 M122.35 119.6 C143.97 93.19, 167.61 68.29, 226 0.36 M122.35 119.6 C143.08 94.9, 164.32 70.89, 226 0.36 M132.98 119.57 C176.59 73.81, 215.49 25.73, 236.63 0.33 M132.98 119.57 C172.41 76.65, 210.12 31.96, 236.63 0.33 M143.61 119.54 C179.13 82.25, 211.77 40.79, 247.26 0.29 M143.61 119.54 C172.28 89.48, 198.89 56.51, 247.26 0.29 M154.24 119.5 C189.54 76.02, 228.64 31.85, 257.24 1.01 M154.24 119.5 C176.31 91.92, 201.22 65.12, 257.24 1.01 M164.87 119.47 C193.22 84.07, 225.94 50.25, 265.24 4 M164.87 119.47 C195.4 84.57, 226.15 49.54, 265.24 4 M175.5 119.43 C195.38 94.63, 217.46 72.97, 271.28 9.24 M175.5 119.43 C210.69 79.2, 245.08 38.94, 271.28 9.24 M186.13 119.4 C203.27 99.05, 222.45 77.53, 276.01 16 M186.13 119.4 C211.03 90.72, 235.86 61.72, 276.01 16 M196.76 119.36 C216.74 97.22, 234.31 75.67, 278.11 25.78 M196.76 119.36 C216.54 94.29, 237.46 71.62, 278.11 25.78 M207.39 119.33 C228.99 94.1, 247.32 73.51, 278.24 37.82 M207.39 119.33 C225.45 97.37, 244.44 76.4, 278.24 37.82 M218.02 119.29 C239.93 97.55, 259.08 71.74, 278.38 49.86 M218.02 119.29 C234.02 99.32, 251.57 80.33, 278.38 49.86 M228.65 119.26 C247.68 97.96, 266.23 74.03, 278.51 61.9 M228.65 119.26 C248.15 98.1, 265.92 76.77, 278.51 61.9 M239.28 119.23 C250.09 106.13, 259 96.59, 278.64 73.94 M239.28 119.23 C254.13 101.14, 268.7 84.05, 278.64 73.94 M249.25 119.95 C258.44 111.09, 267.66 100.54, 278.77 85.98 M249.25 119.95 C257.87 109.12, 267.59 98.53, 278.77 85.98 M261.85 117.65 C266.14 112.68, 272.41 103.31, 277.6 99.53 M261.85 117.65 C264.77 113.14, 269.02 109.2, 277.6 99.53" stroke="#ff8787" stroke-width="1" fill="none"></path><path d="M29.81 0 C75.9 2.43, 119.79 1.79, 248.64 0 M29.81 0 C74.12 -1.1, 117.93 -0.93, 248.64 0 M248.64 0 C268.98 1.59, 276.83 10.21, 278.46 29.81 M248.64 0 C269.23 2, 276.94 12.03, 278.46 29.81 M278.46 29.81 C280.64 43.7, 279.18 61.82, 278.46 89.44 M278.46 29.81 C277.91 41.36, 278.35 53.05, 278.46 89.44 M278.46 89.44 C279.22 109.12, 270.29 118.78, 248.64 119.25 M278.46 89.44 C280.58 107.63, 269.23 118.16, 248.64 119.25 M248.64 119.25 C177.57 118.03, 111.29 117.08, 29.81 119.25 M248.64 119.25 C178.82 117.53, 110.8 118.45, 29.81 119.25 M29.81 119.25 C9.34 117.96, 0.61 109.47, 0 89.44 M29.81 119.25 C10.23 121.09, 2.2 110.28, 0 89.44 M0 89.44 C-2.07 67.43, 0.2 47.24, 0 29.81 M0 89.44 C0.84 70.99, 0.87 53.92, 0 29.81 M0 29.81 C0.27 11.4, 11.34 -1.02, 29.81 0 M0 29.81 C1.04 10.49, 10.08 -1.7, 29.81 0" stroke="#e03131" stroke-width="2" fill="none"></path></g><g transform="translate(1155.4312300762213 287.19322795061555) rotate(0 48.16798400878906 22.5)"><text x="48.16798400878906" y="31.536" font-family="Virgil, Segoe UI Emoji" font-size="36px" fill="#1e1e1e" text-anchor="middle" style="white-space: pre;" direction="ltr" dominant-baseline="alphabetic">Proxy</text></g><g stroke-linecap="round" transform="translate(405.3985051689997 92.24492406858235) rotate(0 139.22846335293252 59.624745516615064)"><path d="M4.22 11.62 C4.22 11.62, 4.22 11.62, 4.22 11.62 M4.22 11.62 C4.22 11.62, 4.22 11.62, 4.22 11.62 M1.07 27.43 C7.52 22.48, 12.1 15.82, 24.69 0.26 M1.07 27.43 C8.02 19.3, 15.3 10.71, 24.69 0.26 M0.55 40.23 C6.14 31.64, 15.05 21.9, 35.32 0.23 M0.55 40.23 C11.27 28.71, 22.43 16.88, 35.32 0.23 M0.68 52.27 C14.2 36.36, 27.62 20.46, 45.95 0.19 M0.68 52.27 C13.34 37.16, 26.5 24.29, 45.95 0.19 M0.81 64.31 C13.27 48.4, 25.89 34.29, 56.58 0.16 M0.81 64.31 C13.73 49.95, 27.02 32.97, 56.58 0.16 M0.95 76.35 C24.47 47.76, 48.84 18.83, 67.21 0.12 M0.95 76.35 C23.3 51.01, 45.17 25.78, 67.21 0.12 M1.08 88.39 C22.2 68.53, 40.09 45.48, 77.84 0.09 M1.08 88.39 C28.44 57.39, 53.27 27.34, 77.84 0.09 M1.87 99.68 C17.86 78.67, 36.46 59.96, 88.47 0.05 M1.87 99.68 C27.47 70.85, 52.33 40.38, 88.47 0.05 M4.63 108.7 C26.87 79.84, 52.43 52.11, 99.1 0.02 M4.63 108.7 C26.22 85.4, 46.6 61.36, 99.1 0.02 M10.66 113.95 C38.67 82.88, 63.36 53.12, 109.73 -0.01 M10.66 113.95 C36.05 85.5, 60.38 56.27, 109.73 -0.01 M18.01 117.69 C53.7 73.8, 90.02 32.94, 120.36 -0.05 M18.01 117.69 C41.21 90.13, 66.21 61.44, 120.36 -0.05 M27.33 119.16 C51.38 89.82, 76.92 58.31, 130.99 -0.08 M27.33 119.16 C57.42 83.11, 89.56 46.85, 130.99 -0.08 M37.96 119.13 C69.31 82.68, 98.7 46.25, 141.62 -0.12 M37.96 119.13 C79 73.56, 119.48 26.53, 141.62 -0.12 M48.59 119.09 C77.07 89.07, 104.51 57.91, 152.25 -0.15 M48.59 119.09 C70.33 93.37, 91.26 68.44, 152.25 -0.15 M59.22 119.06 C93.19 79.4, 125.15 42.66, 162.22 0.57 M59.22 119.06 C83.9 92.57, 107.46 65.12, 162.22 0.57 M69.85 119.02 C94.15 88.34, 122.78 59.64, 172.85 0.53 M69.85 119.02 C109.33 72.44, 149.01 26.8, 172.85 0.53 M80.48 118.99 C118.13 74.58, 156.52 33.1, 183.48 0.5 M80.48 118.99 C112.43 80.34, 146.52 42.71, 183.48 0.5 M91.11 118.95 C113.96 96.46, 134.15 70.34, 194.11 0.46 M91.11 118.95 C117.25 88.14, 143.4 56.34, 194.11 0.46 M101.74 118.92 C128.89 88.47, 152.94 62.21, 204.74 0.43 M101.74 118.92 C123.41 93.53, 146.69 67.49, 204.74 0.43 M111.72 119.64 C145.49 81.88, 182.18 42.18, 215.37 0.4 M111.72 119.64 C145.79 80.37, 181.75 40.79, 215.37 0.4 M122.35 119.6 C145.12 93.09, 171.39 61.77, 226 0.36 M122.35 119.6 C150.47 87.95, 177.51 54.97, 226 0.36 M132.98 119.57 C163.24 84.05, 195.19 51.19, 236.63 0.33 M132.98 119.57 C166.26 81.38, 198.74 43.07, 236.63 0.33 M143.61 119.54 C177.33 80.28, 212.78 38.47, 247.26 0.29 M143.61 119.54 C164.93 96.11, 185.36 70.52, 247.26 0.29 M154.24 119.5 C188.87 77.28, 222.22 37.56, 257.24 1.01 M154.24 119.5 C174.07 95.31, 195.24 71.3, 257.24 1.01 M164.87 119.47 C200.9 75.76, 241.75 32.76, 265.24 4 M164.87 119.47 C200.92 77.79, 236.62 35.65, 265.24 4 M175.5 119.43 C196.2 95.48, 218.86 70.92, 271.28 9.24 M175.5 119.43 C211.41 78.08, 248.37 34.18, 271.28 9.24 M186.13 119.4 C216.46 84.18, 247.11 51, 276.01 16 M186.13 119.4 C207.49 93.45, 230.46 67.95, 276.01 16 M196.76 119.36 C216.82 95.3, 239.78 69.28, 278.11 25.78 M196.76 119.36 C222.85 88.25, 248.98 57.32, 278.11 25.78 M207.39 119.33 C220.71 102.37, 238.44 85.87, 278.24 37.82 M207.39 119.33 C236.16 86.76, 265.52 53.89, 278.24 37.82 M218.02 119.29 C233.07 102.94, 248.35 85.88, 278.38 49.86 M218.02 119.29 C236.98 96.17, 257.57 74.35, 278.38 49.86 M228.65 119.26 C242.82 102.64, 260.12 84, 278.51 61.9 M228.65 119.26 C242.25 103.15, 256.85 86.44, 278.51 61.9 M239.28 119.23 C255.81 103.56, 271.89 84.94, 278.64 73.94 M239.28 119.23 C251.51 105.45, 264.24 90.13, 278.64 73.94 M249.25 119.95 C254.77 112.79, 264.35 102.34, 278.77 85.98 M249.25 119.95 C257.29 111.2, 264.75 102.9, 278.77 85.98 M261.85 117.65 C267.61 112.22, 270.88 103.3, 277.6 99.53 M261.85 117.65 C266.78 112.39, 270.8 107.14, 277.6 99.53" stroke="#ff8787" stroke-width="1" fill="none"></path><path d="M29.81 0 C87.42 -0.17, 142.74 2.27, 248.64 0 M29.81 0 C82.64 1.8, 134.69 0.34, 248.64 0 M248.64 0 C268.68 -1.64, 279.5 10.41, 278.46 29.81 M248.64 0 C270.65 1.64, 277.96 8.24, 278.46 29.81 M278.46 29.81 C277.51 45.99, 279.24 61.73, 278.46 89.44 M278.46 29.81 C278.72 41.57, 278.47 54.87, 278.46 89.44 M278.46 89.44 C278.71 110.44, 266.57 117.52, 248.64 119.25 M278.46 89.44 C279.04 108.24, 269.78 120.23, 248.64 119.25 M248.64 119.25 C173.08 119.33, 94.92 122.23, 29.81 119.25 M248.64 119.25 C198.15 120.36, 149.3 120.35, 29.81 119.25 M29.81 119.25 C11.89 119.59, 0.26 107.44, 0 89.44 M29.81 119.25 C10.76 117.51, 1.28 109.25, 0 89.44 M0 89.44 C-0.83 71.78, -1.35 53.06, 0 29.81 M0 89.44 C-0.9 76.97, -0.52 65.16, 0 29.81 M0 29.81 C-0.55 10.59, 11.82 -1.01, 29.81 0 M0 29.81 C0.72 9.9, 9.5 -1.73, 29.81 0" stroke="#e03131" stroke-width="2" fill="none"></path></g><g transform="translate(496.45898451314497 129.36966958519747) rotate(0 48.16798400878906 22.5)"><text x="48.16798400878906" y="31.536" font-family="Virgil, Segoe UI Emoji" font-size="36px" fill="#1e1e1e" text-anchor="middle" style="white-space: pre;" direction="ltr" dominant-baseline="alphabetic">Proxy</text></g><g stroke-linecap="round" transform="translate(405.3985051689997 250.06848243400054) rotate(0 139.22846335293252 59.624745516615064)"><path d="M4.22 11.62 C4.22 11.62, 4.22 11.62, 4.22 11.62 M4.22 11.62 C4.22 11.62, 4.22 11.62, 4.22 11.62 M1.07 27.43 C8.52 18.65, 18.23 9.77, 24.69 0.26 M1.07 27.43 C6.64 19.95, 14.01 11.45, 24.69 0.26 M0.55 40.23 C10.44 28.56, 18.29 17.98, 35.32 0.23 M0.55 40.23 C11.88 26.38, 23.89 13.24, 35.32 0.23 M0.68 52.27 C14.57 34.84, 30.23 19.48, 45.95 0.19 M0.68 52.27 C10.78 39.08, 23.2 26.22, 45.95 0.19 M0.81 64.31 C11.47 50.59, 23.36 35.58, 56.58 0.16 M0.81 64.31 C23.66 40.43, 43.81 14.8, 56.58 0.16 M0.95 76.35 C19.59 55.68, 38.08 36.73, 67.21 0.12 M0.95 76.35 C20.58 52.08, 41.09 30.01, 67.21 0.12 M1.08 88.39 C29.06 56.05, 55.15 26.44, 77.84 0.09 M1.08 88.39 C16.95 70.81, 33.55 51.3, 77.84 0.09 M1.87 99.68 C23.4 76.39, 44.3 50.87, 88.47 0.05 M1.87 99.68 C36.98 59.88, 72.86 18.89, 88.47 0.05 M4.63 108.7 C30.24 77.18, 57.98 47.13, 99.1 0.02 M4.63 108.7 C36.68 72.14, 68.04 35.19, 99.1 0.02 M10.66 113.95 C38.18 80.45, 68.8 50.48, 109.73 -0.01 M10.66 113.95 C43.75 77.12, 76.13 38.06, 109.73 -0.01 M18.01 117.69 C38.99 94.13, 62.08 67.23, 120.36 -0.05 M18.01 117.69 C53.58 76.75, 89.49 33.69, 120.36 -0.05 M27.33 119.16 C57.86 88.13, 87.77 52, 130.99 -0.08 M27.33 119.16 C60.9 78.8, 96.12 40.02, 130.99 -0.08 M37.96 119.13 C68.64 88.39, 94.54 57.07, 141.62 -0.12 M37.96 119.13 C75.6 73.32, 114.21 28.94, 141.62 -0.12 M48.59 119.09 C83.38 76.59, 123.39 35.01, 152.25 -0.15 M48.59 119.09 C79.22 85.2, 108.83 50.34, 152.25 -0.15 M59.22 119.06 C83.78 87.25, 111.78 60.62, 162.22 0.57 M59.22 119.06 C95.83 75.54, 134.64 31.04, 162.22 0.57 M69.85 119.02 C98.08 89.07, 125.23 57.09, 172.85 0.53 M69.85 119.02 C102.25 82.67, 133.58 45.25, 172.85 0.53 M80.48 118.99 C105 91.03, 128.64 59.44, 183.48 0.5 M80.48 118.99 C104.05 90.44, 128.93 63.29, 183.48 0.5 M91.11 118.95 C129.96 75.04, 172.01 28.51, 194.11 0.46 M91.11 118.95 C130.31 72.88, 169.84 28.8, 194.11 0.46 M101.74 118.92 C120.97 95.99, 142.99 70.77, 204.74 0.43 M101.74 118.92 C134.77 79.1, 167.83 40.59, 204.74 0.43 M111.72 119.64 C148.59 77.74, 182.69 33.91, 215.37 0.4 M111.72 119.64 C139.87 85.68, 170.94 50.69, 215.37 0.4 M122.35 119.6 C161.87 75.13, 201.93 27.67, 226 0.36 M122.35 119.6 C157.28 79.22, 191.05 40.37, 226 0.36 M132.98 119.57 C153.63 95.8, 174.16 71.56, 236.63 0.33 M132.98 119.57 C164.4 85.35, 195.06 49.74, 236.63 0.33 M143.61 119.54 C175.27 81.72, 211.08 42.32, 247.26 0.29 M143.61 119.54 C183.72 75.11, 223.57 29.45, 247.26 0.29 M154.24 119.5 C178.13 92.84, 203.7 61.28, 257.24 1.01 M154.24 119.5 C183.93 86.75, 210.76 53.68, 257.24 1.01 M164.87 119.47 C190.47 92.38, 214.33 62.39, 265.24 4 M164.87 119.47 C199.83 79, 236.34 38.38, 265.24 4 M175.5 119.43 C211.51 78.75, 244.22 36.72, 271.28 9.24 M175.5 119.43 C213.13 78.63, 248.54 36.76, 271.28 9.24 M186.13 119.4 C204.34 97.64, 226.87 72.31, 276.01 16 M186.13 119.4 C217.37 82.77, 250.4 45.5, 276.01 16 M196.76 119.36 C224.71 89.29, 253.87 55.11, 278.11 25.78 M196.76 119.36 C226.5 83.91, 256.66 49.36, 278.11 25.78 M207.39 119.33 C226.7 96.93, 241.87 77.56, 278.24 37.82 M207.39 119.33 C223.94 99.87, 241.74 79.01, 278.24 37.82 M218.02 119.29 C239.05 94.37, 261.17 69.98, 278.38 49.86 M218.02 119.29 C234.4 100.4, 250.6 80.28, 278.38 49.86 M228.65 119.26 C247.73 98.03, 266.93 73.74, 278.51 61.9 M228.65 119.26 C247.01 99.05, 263.39 79.9, 278.51 61.9 M239.28 119.23 C254.93 101.25, 269.38 82.52, 278.64 73.94 M239.28 119.23 C251.99 104.95, 266.63 88.14, 278.64 73.94 M249.25 119.95 C259.38 106.89, 272.44 95.46, 278.77 85.98 M249.25 119.95 C257.64 110.03, 265.78 101.14, 278.77 85.98 M261.85 117.65 C266.87 110.28, 274.13 106.41, 277.6 99.53 M261.85 117.65 C266.18 113.51, 270.01 108.27, 277.6 99.53" stroke="#ff8787" stroke-width="1" fill="none"></path><path d="M29.81 0 C85.37 -2.27, 142.01 -1.87, 248.64 0 M29.81 0 C114.64 0.83, 199.78 1.75, 248.64 0 M248.64 0 C270.38 1.43, 278.02 8.47, 278.46 29.81 M248.64 0 C267.86 -1.87, 279.96 9.41, 278.46 29.81 M278.46 29.81 C277 49.34, 279.68 65.21, 278.46 89.44 M278.46 29.81 C278.3 44.39, 277.2 56.98, 278.46 89.44 M278.46 89.44 C278.97 108.38, 269.62 120.1, 248.64 119.25 M278.46 89.44 C279.65 111.38, 270.34 121.1, 248.64 119.25 M248.64 119.25 C199.63 119.9, 154.01 119.58, 29.81 119.25 M248.64 119.25 C179.93 119.72, 109.63 118.76, 29.81 119.25 M29.81 119.25 C10.66 117.74, 1.11 109.26, 0 89.44 M29.81 119.25 C10.42 118.6, 1.3 108.17, 0 89.44 M0 89.44 C-1.37 68.3, 0.03 43.68, 0 29.81 M0 89.44 C-0.18 71.87, 1.04 53.14, 0 29.81 M0 29.81 C0.63 9.91, 9.56 -1.51, 29.81 0 M0 29.81 C-0.66 9.31, 11.71 -1.83, 29.81 0" stroke="#e03131" stroke-width="2" fill="none"></path></g><g transform="translate(496.45898451314497 287.19322795061566) rotate(0 48.16798400878906 22.5)"><text x="48.16798400878906" y="31.536" font-family="Virgil, Segoe UI Emoji" font-size="36px" fill="#1e1e1e" text-anchor="middle" style="white-space: pre;" direction="ltr" dominant-baseline="alphabetic">Proxy</text></g><g stroke-linecap="round"><g transform="translate(916.628679526566 645.4164905831573) rotate(0 -20.06115969327584 -127.69230054729371)"><path d="M2.76 -1.3 C-3.82 -44.48, -33.26 -214.57, -40.05 -256.86 M0.81 4.16 C-6.08 -38.87, -35.68 -211.38, -42.25 -254.03" stroke="#e03131" stroke-width="2" fill="none"></path></g><g transform="translate(916.628679526566 645.4164905831573) rotate(0 -20.06115969327584 -127.69230054729371)"><path d="M-30.94 -232.18 C-34.65 -236.63, -36.75 -246.15, -42.22 -254.04 M-30.13 -232.92 C-35.03 -240.86, -39.83 -247.69, -42.08 -253.72" stroke="#e03131" stroke-width="2" fill="none"></path></g><g transform="translate(916.628679526566 645.4164905831573) rotate(0 -20.06115969327584 -127.69230054729371)"><path d="M-47.81 -229.41 C-46.84 -234.8, -44.23 -245.09, -42.22 -254.04 M-47.01 -230.15 C-45.54 -239.21, -43.95 -247.08, -42.08 -253.72" stroke="#e03131" stroke-width="2" fill="none"></path></g></g><mask></mask><g stroke-linecap="round"><g transform="translate(555.0204652545326 657.1943680731141) rotate(0 153.79660578119365 -129.3303888649486)"><path d="M2.18 0.36 C52.99 -42.5, 254.06 -215.82, 304.96 -258.63 M-0.08 -1.91 C51.55 -44.15, 258.96 -211.83, 309.93 -254.98" stroke="#e03131" stroke-width="2" fill="none"></path></g><g transform="translate(555.0204652545326 657.1943680731141) rotate(0 153.79660578119365 -129.3303888649486)"><path d="M297.51 -235.32 C301.22 -240.07, 306.6 -245.89, 310.73 -255.23 M296.75 -232.47 C300.41 -238.05, 303.97 -243.91, 309.18 -254.57" stroke="#e03131" stroke-width="2" fill="none"></path></g><g transform="translate(555.0204652545326 657.1943680731141) rotate(0 153.79660578119365 -129.3303888649486)"><path d="M286.63 -248.51 C293.56 -249.36, 302.23 -251.18, 310.73 -255.23 M285.87 -245.66 C292 -248.15, 298.07 -250.96, 309.18 -254.57" stroke="#e03131" stroke-width="2" fill="none"></path></g></g><mask></mask><g stroke-linecap="round"><g transform="translate(365.01042977815086 653.661004826127) rotate(0 61.3254337942617 -131.35021109740558)"><path d="M-0.06 -2.68 C20.2 -46.64, 100.92 -219.14, 121.46 -262.17 M-3.54 2.03 C16.25 -42.97, 97.72 -222.33, 118.57 -266.89" stroke="#c2255c" stroke-width="2" fill="none"></path></g><g transform="translate(365.01042977815086 653.661004826127) rotate(0 61.3254337942617 -131.35021109740558)"><path d="M114.61 -242.83 C117.38 -248.99, 118.94 -254.87, 117.03 -267.24 M116.98 -242.56 C118.13 -250.02, 118.3 -256.37, 118.37 -267.24" stroke="#c2255c" stroke-width="2" fill="none"></path></g><g transform="translate(365.01042977815086 653.661004826127) rotate(0 61.3254337942617 -131.35021109740558)"><path d="M99.07 -249.97 C106.47 -254.02, 112.63 -257.78, 117.03 -267.24 M101.45 -249.71 C107.33 -254.85, 112.24 -259.01, 118.37 -267.24" stroke="#c2255c" stroke-width="2" fill="none"></path></g></g><mask></mask><g stroke-linecap="round"><g transform="translate(1466.4376367001023 643.5516493036131) rotate(0 -53.38545779914239 -227.05361328681022)"><path d="M0.38 -0.98 C-17.33 -76.52, -90.08 -376.08, -108.35 -451.9 M-2.85 -3.98 C-19.45 -80.4, -85.99 -380.74, -102.81 -455.71" stroke="#c2255c" stroke-width="2" fill="none"></path></g><g transform="translate(1466.4376367001023 643.5516493036131) rotate(0 -53.38545779914239 -227.05361328681022)"><path d="M-90.06 -435.76 C-90.92 -441.14, -96.82 -444.59, -103.5 -453.84 M-88.57 -434.94 C-92.99 -440.7, -97.2 -447.3, -102.22 -456.5" stroke="#c2255c" stroke-width="2" fill="none"></path></g><g transform="translate(1466.4376367001023 643.5516493036131) rotate(0 -53.38545779914239 -227.05361328681022)"><path d="M-106.75 -432.05 C-103.86 -438.28, -105.99 -442.58, -103.5 -453.84 M-105.27 -431.23 C-104.76 -438.2, -104.03 -445.9, -102.22 -456.5" stroke="#c2255c" stroke-width="2" fill="none"></path></g></g><mask></mask><g stroke-linecap="round" transform="translate(10 10) rotate(0 147.81236249895846 90.35705880334888)"><path d="M32 0 C102.45 1.18, 176.47 0.41, 263.62 0 M32 0 C102.82 -1.17, 177 -0.67, 263.62 0 M263.62 0 C284.03 1.84, 298.19 10.5, 295.62 32 M263.62 0 C285.01 2.29, 296.06 13.97, 295.62 32 M295.62 32 C293.73 68.69, 298.05 97.82, 295.62 148.71 M295.62 32 C294.58 61.85, 295.46 92.63, 295.62 148.71 M295.62 148.71 C298.41 172.52, 285.7 182.69, 263.62 180.71 M295.62 148.71 C295.15 172.69, 285.33 180.51, 263.62 180.71 M263.62 180.71 C179.98 179.49, 98.52 176.62, 32 180.71 M263.62 180.71 C199.83 180.97, 135.17 179.49, 32 180.71 M32 180.71 C7.85 180.55, -2.56 166.83, 0 148.71 M32 180.71 C9.56 181.84, 1.71 172.59, 0 148.71 M0 148.71 C-3.09 112.9, 1.15 71.38, 0 32 M0 148.71 C-3.49 104.56, -0.48 59.25, 0 32 M0 32 C-2.4 10.92, 14.35 1.33, 32 0 M0 32 C-0.9 12.66, 11.39 -4.29, 32 0" stroke="#1e1e1e" stroke-width="2" fill="none"></path></g><g stroke-linecap="round" transform="translate(30.62498081380727 36.51783247489584) rotate(0 12.767845265690994 13.749987209205301)"><path d="M2.12 4.49 C2.12 4.49, 2.12 4.49, 2.12 4.49 M2.12 4.49 C2.12 4.49, 2.12 4.49, 2.12 4.49 M-0.04 17.95 C5.64 11.92, 7.18 9.02, 15.58 3.21 M2.2 17.09 C5.85 13.62, 7.5 10.61, 15.73 1.69 M7.02 23 C11.22 18.51, 16.79 13.11, 22.97 5.81 M5.89 24.34 C8.34 20.49, 12.58 16.77, 21.8 6.53 M14.26 25.75 C18.07 22.41, 22.43 18.28, 24.82 14.43 M14.83 27.38 C17.74 22.25, 21.53 19.47, 25.62 15.47" stroke="#1e1e1e" stroke-width="1" fill="none"></path><path d="M9.99 0.14 C12.58 -0.42, 16.1 0.52, 18.59 2.07 C21.07 3.62, 23.93 6.87, 24.91 9.43 C25.89 11.99, 25.34 14.62, 24.46 17.42 C23.58 20.22, 22.07 24.56, 19.62 26.23 C17.18 27.91, 12.51 28, 9.8 27.47 C7.09 26.95, 5 25.32, 3.36 23.07 C1.72 20.83, 0.19 17.08, -0.04 14.01 C-0.27 10.93, -0.02 6.82, 1.98 4.64 C3.98 2.46, 9.96 1.79, 11.96 0.92 C13.96 0.06, 13.92 -0.73, 13.98 -0.52 M12.56 0.38 C15.25 0.35, 18.9 1.57, 21.15 3.75 C23.4 5.93, 25.82 10.36, 26.04 13.44 C26.26 16.52, 24.28 19.85, 22.48 22.23 C20.69 24.61, 17.63 27.16, 15.27 27.71 C12.91 28.25, 10.76 27.08, 8.33 25.52 C5.9 23.96, 1.81 20.94, 0.68 18.34 C-0.46 15.73, 0.74 12.56, 1.53 9.92 C2.32 7.27, 3.17 3.98, 5.44 2.45 C7.7 0.91, 13.68 1.18, 15.09 0.71 C16.5 0.24, 14.26 -0.7, 13.91 -0.4" stroke="#1e1e1e" stroke-width="2" fill="none"></path></g><g transform="translate(64.99994883682302 42.410684135983956) rotate(0 73.76558345655303 10.42358803986724)"><text x="0" y="14.609700996677882" font-family="Virgil, Segoe UI Emoji" font-size="16.677740863787538px" fill="#1e1e1e" text-anchor="start" style="white-space: pre;" direction="ltr" dominant-baseline="alphabetic">Propagate packet</text></g><g stroke-linecap="round" transform="translate(30.62498081380727 85.62492965062893) rotate(0 12.767845265690994 13.749987209205301)"><path d="M3.11 5.35 C3.11 5.35, 3.11 5.35, 3.11 5.35 M3.11 5.35 C3.11 5.35, 3.11 5.35, 3.11 5.35 M3.08 20.42 C8.82 13.17, 11.61 6.42, 18.82 -0.45 M2.58 18.61 C4.13 15.85, 9.18 12.01, 17.44 -0.21 M5.4 26.76 C11.27 18.17, 18.37 11.72, 24.62 6.86 M7.53 25.47 C11.26 21.01, 13.73 16.51, 22.77 6.08 M18.04 25.35 C20.15 24.7, 21.23 20.43, 26.98 16.22 M16.01 26.87 C19.97 22.97, 22.59 19.34, 26.96 15.57" stroke="#c2255c" stroke-width="1" fill="none"></path><path d="M18.29 0.61 C20.83 1.57, 24.13 4.58, 25.36 7.34 C26.58 10.1, 26.49 14.3, 25.65 17.19 C24.8 20.07, 22.49 22.82, 20.28 24.66 C18.07 26.49, 15.04 28.47, 12.38 28.2 C9.72 27.93, 6.51 25.43, 4.3 23.06 C2.08 20.68, -0.72 16.89, -0.9 13.93 C-1.08 10.96, 1.57 7.65, 3.2 5.24 C4.84 2.83, 6 -0.18, 8.9 -0.55 C11.8 -0.93, 18.54 2.47, 20.6 2.98 C22.66 3.49, 21.62 2.37, 21.26 2.51 M8.03 -0.09 C10.33 -1.27, 13.78 -1.32, 16.58 0.09 C19.38 1.49, 23.61 5.52, 24.83 8.35 C26.06 11.18, 24.76 14.29, 23.92 17.05 C23.08 19.82, 21.67 23.16, 19.77 24.92 C17.87 26.67, 15.29 27.68, 12.53 27.59 C9.77 27.5, 5.12 26.26, 3.22 24.37 C1.31 22.48, 1.19 19.14, 1.12 16.28 C1.04 13.42, 1.39 9.99, 2.77 7.22 C4.15 4.45, 8.45 0.82, 9.39 -0.35 C10.33 -1.53, 8.32 -0.42, 8.4 0.14" stroke="#c2255c" stroke-width="2" fill="none"></path></g><g transform="translate(66.96423272385073 88.57135548117321) rotate(0 66.11051286969905 10.42358803986724)"><text x="0" y="14.609700996677883" font-family="Virgil, Segoe UI Emoji" font-size="16.67774086378754px" fill="#c2255c" text-anchor="start" style="white-space: pre;" direction="ltr" dominant-baseline="alphabetic">Command packet</text></g><g stroke-linecap="round" transform="translate(31.79119107486258 134.73202682636202) rotate(0 12.767845265690994 13.749987209205301)"><path d="M1.38 6.5 C1.38 6.5, 1.38 6.5, 1.38 6.5 M1.38 6.5 C1.38 6.5, 1.38 6.5, 1.38 6.5 M-0.23 16.78 C5.49 12.3, 7.99 9.57, 18.47 -0.1 M2.46 18.7 C5.48 12.37, 10.64 6.88, 17.25 1.33 M8.13 24.71 C12.86 19.22, 15.11 14.27, 21.48 6.3 M6.64 23.68 C10.34 19.24, 14.48 15.42, 22.86 4.87 M13.89 29.21 C18.43 21.98, 23.75 17.22, 26.2 16.45 M14.75 27.48 C17.29 25.5, 19.42 22.13, 25.31 15.26" stroke="#ffc9c9" stroke-width="1" fill="none"></path><path d="M8.74 1.04 C11.22 -0.2, 14.78 -0.41, 17.32 0.48 C19.86 1.36, 22.65 3.79, 23.98 6.34 C25.31 8.89, 25.89 12.86, 25.29 15.75 C24.69 18.64, 22.33 21.62, 20.38 23.66 C18.42 25.71, 16.16 28.01, 13.57 28.02 C10.97 28.03, 7.03 25.65, 4.8 23.73 C2.57 21.81, 0.73 19.41, 0.18 16.51 C-0.37 13.61, 0.06 9.02, 1.51 6.36 C2.95 3.69, 7.43 1.36, 8.85 0.52 C10.26 -0.32, 9.86 0.95, 9.99 1.29 M14.01 0.29 C16.87 0.27, 20.32 2.68, 22.34 4.61 C24.36 6.55, 26.04 8.98, 26.12 11.9 C26.2 14.82, 24.47 19.81, 22.83 22.13 C21.19 24.45, 18.85 24.91, 16.28 25.82 C13.71 26.73, 10.05 28.67, 7.41 27.59 C4.77 26.51, 1.47 22.16, 0.46 19.34 C-0.56 16.53, 0.42 13.49, 1.32 10.69 C2.22 7.88, 3.59 4.22, 5.87 2.52 C8.15 0.83, 13.58 0.95, 14.99 0.51 C16.41 0.07, 14.59 -0.19, 14.36 -0.11" stroke="#e03131" stroke-width="2" fill="none"></path></g><g transform="translate(68.13044298490604 137.6784526569063) rotate(0 109.60602592392297 10.42358803986724)"><text x="0" y="14.609700996677882" font-family="Virgil, Segoe UI Emoji" font-size="16.677740863787538px" fill="#e03131" text-anchor="start" style="white-space: pre;" direction="ltr" dominant-baseline="alphabetic">Backend propagate packet</text></g></svg>