<svg version="1.1" xmlns="http://www.w3.org/2000/svg" viewBox="0 0 1439.5037950074147 162.713683499554" width="2879.0075900148295" height="325.427366999108" filter="invert(93%) hue-rotate(180deg)">
  <!-- svg-source:excalidraw -->
  
  <defs>
    <style class="style-fonts">
      @font-face {
        font-family: "Virgil";
        src: url("https://excalidraw.com/Virgil.woff2");
      }
      @font-face {
        font-family: "Cascadia";
        src: url("https://excalidraw.com/Cascadia.woff2");
      }
      @font-face {
        font-family: "Assistant";
        src: url("https://excalidraw.com/Assistant-Regular.woff2");
      }
    </style>
    
  </defs>
  <g stroke-linecap="round" transform="translate(10 20.549033180261404) rotate(0 153.85008613271202 65.51372855993532)"><path d="M7.86 8.16 C7.86 8.16, 7.86 8.16, 7.86 8.16 M7.86 8.16 C7.86 8.16, 7.86 8.16, 7.86 8.16 M1.43 27.75 C7.23 21.66, 11.7 17.71, 24.4 1.33 M1.43 27.75 C8.87 21.15, 14.05 12.89, 24.4 1.33 M0.91 40.54 C13.2 25.96, 28.12 11.19, 36.34 -0.21 M0.91 40.54 C12.26 28.25, 24.19 14.37, 36.34 -0.21 M1.04 52.58 C14.64 37.35, 25.57 24.66, 46.97 -0.25 M1.04 52.58 C10.77 41.34, 22.09 30.16, 46.97 -0.25 M1.18 64.62 C17.91 45.26, 37.42 26.06, 57.6 -0.28 M1.18 64.62 C18.05 46.28, 35.18 26.55, 57.6 -0.28 M1.31 76.67 C20.1 54.05, 40.77 31.38, 67.57 0.44 M1.31 76.67 C15.95 60.48, 28.26 45.87, 67.57 0.44 M1.44 88.71 C18.29 72.19, 33.3 54.45, 78.2 0.41 M1.44 88.71 C18.9 70.43, 34.78 52.6, 78.2 0.41 M0.92 101.5 C29.25 69.14, 56.47 33.06, 88.83 0.37 M0.92 101.5 C29.37 66.42, 60.1 33.44, 88.83 0.37 M2.37 112.03 C36.74 74.34, 66.23 35.77, 99.46 0.34 M2.37 112.03 C32.76 74.38, 64.77 39.18, 99.46 0.34 M5.78 120.3 C35.77 85.65, 66.42 53.94, 110.09 0.3 M5.78 120.3 C34.99 87.15, 63.46 53.63, 110.09 0.3 M11.82 125.55 C34.95 96.07, 59.91 70.72, 120.72 0.27 M11.82 125.55 C46.19 88.93, 78.25 51.14, 120.72 0.27 M19.17 129.29 C49.81 97.75, 77.22 66.39, 131.35 0.23 M19.17 129.29 C55.91 87.24, 90.98 45.85, 131.35 0.23 M28.49 130.76 C64.91 89.74, 99.59 47.44, 141.98 0.2 M28.49 130.76 C62.87 89.62, 98.4 50.46, 141.98 0.2 M38.46 131.48 C65.09 102.35, 89.02 72.88, 152.61 0.16 M38.46 131.48 C74.57 89.04, 111.94 45.87, 152.61 0.16 M49.09 131.45 C82.22 95.53, 113.42 58.55, 163.24 0.13 M49.09 131.45 C85.77 90.17, 123.01 50.52, 163.24 0.13 M59.72 131.41 C98.12 89.13, 134.95 47.58, 173.87 0.09 M59.72 131.41 C103.89 80.62, 147.6 29.61, 173.87 0.09 M70.35 131.38 C108.72 91.58, 144.33 49.47, 184.5 0.06 M70.35 131.38 C112.95 81.83, 158.68 30.85, 184.5 0.06 M80.98 131.35 C123.64 83.9, 167.4 33.5, 195.13 0.03 M80.98 131.35 C122.43 84.18, 164.81 35.51, 195.13 0.03 M91.61 131.31 C117.55 103.32, 142.21 71.79, 205.76 -0.01 M91.61 131.31 C134.58 80.1, 179.17 29.7, 205.76 -0.01 M102.24 131.28 C144.68 82.35, 185.31 34.35, 216.39 -0.04 M102.24 131.28 C144.8 82.87, 187.03 34.14, 216.39 -0.04 M112.87 131.24 C153.31 83.15, 194.95 36.53, 227.02 -0.08 M112.87 131.24 C146.97 91.79, 182.32 52.98, 227.02 -0.08 M123.5 131.21 C164.34 81.74, 207.09 34.73, 237.65 -0.11 M123.5 131.21 C152.73 95.82, 182.98 62.17, 237.65 -0.11 M134.13 131.17 C165.34 95.64, 193.53 61.91, 248.28 -0.15 M134.13 131.17 C168.01 95.07, 199.02 57.03, 248.28 -0.15 M144.76 131.14 C191.07 79.41, 236.47 27.84, 258.91 -0.18 M144.76 131.14 C183.48 84.94, 222.97 39.24, 258.91 -0.18 M155.39 131.1 C182.33 100.84, 209.86 67.59, 269.54 -0.22 M155.39 131.1 C182.14 104.19, 205.13 74.94, 269.54 -0.22 M166.02 131.07 C208.84 82.01, 252.99 30.06, 279.52 0.5 M166.02 131.07 C198.97 92.28, 232.25 54.04, 279.52 0.5 M176.65 131.03 C222.53 82.23, 267.49 29.75, 288.84 1.98 M176.65 131.03 C218.06 81.34, 260.4 33.38, 288.84 1.98 M187.28 131 C232.76 82.12, 277.06 31.25, 296.19 5.72 M187.28 131 C209.67 104.99, 232.38 80.88, 296.19 5.72 M197.91 130.97 C236.89 87.69, 270.87 44.97, 302.22 10.97 M197.91 130.97 C234.33 88.69, 268.78 46.68, 302.22 10.97 M208.54 130.93 C229.28 109.25, 249.47 86.15, 305.64 19.23 M208.54 130.93 C244.05 90.7, 277.78 51.5, 305.64 19.23 M219.17 130.9 C252.85 93.19, 286.71 53.59, 307.74 29.01 M219.17 130.9 C244.89 100.75, 272.33 70.22, 307.74 29.01 M229.8 130.86 C255.1 101.57, 283.04 72.6, 307.87 41.05 M229.8 130.86 C250.8 108.39, 271.34 84.23, 307.87 41.05 M240.43 130.83 C256.33 113.18, 274.05 91.29, 307.35 53.85 M240.43 130.83 C259.73 106.52, 280.7 84.31, 307.35 53.85 M251.06 130.79 C271.47 106.73, 293.35 81.68, 307.48 65.89 M251.06 130.79 C274.13 105.53, 295.55 82.08, 307.48 65.89 M261.04 131.51 C278.14 109.95, 296.24 90.92, 307.62 77.93 M261.04 131.51 C273.5 116.6, 285.83 103.43, 307.62 77.93 M271.67 131.48 C284.68 118.39, 296.92 103.77, 307.75 89.97 M271.67 131.48 C280.92 119.66, 289.95 110.49, 307.75 89.97 M283.61 129.93 C288.42 121.46, 295.39 114.56, 307.23 102.77 M283.61 129.93 C292.33 120.29, 299.51 110.29, 307.23 102.77" stroke="#ff8787" stroke-width="1" fill="none"></path><path d="M32 0 C104.07 -3.43, 174.55 -3.01, 275.7 0 M32 0 C84.55 -1.1, 137.12 -2.65, 275.7 0 M275.7 0 C297.01 1.86, 307.18 9.72, 307.7 32 M275.7 0 C296.67 -1.3, 308.59 12.01, 307.7 32 M307.7 32 C306.22 48.89, 309.03 69.63, 307.7 99.03 M307.7 32 C306.95 48.92, 307.61 63.24, 307.7 99.03 M307.7 99.03 C309.59 122.12, 295.25 133.01, 275.7 131.03 M307.7 99.03 C309.39 122.26, 298.52 130.19, 275.7 131.03 M275.7 131.03 C187.03 131.46, 97.59 133.48, 32 131.03 M275.7 131.03 C196.79 132.93, 116.2 132.87, 32 131.03 M32 131.03 C12.07 131.13, -0.11 122.17, 0 99.03 M32 131.03 C12.72 132.86, -1.59 119.37, 0 99.03 M0 99.03 C-1.2 80.25, -0.56 63, 0 32 M0 99.03 C1.15 81.4, 0.11 64.58, 0 32 M0 32 C0.58 12.11, 11.93 1.77, 32 0 M0 32 C-1.31 9.26, 12.11 2.2, 32 0" stroke="#e03131" stroke-width="2" fill="none"></path></g><g transform="translate(109.18411628407921 63.56276174019672) rotate(0 54.66596984863281 22.5)"><text x="54.66596984863281" y="31.536" font-family="Virgil, Segoe UI Emoji" font-size="36px" fill="#1e1e1e" text-anchor="middle" style="white-space: pre;" direction="ltr" dominant-baseline="alphabetic">Player</text></g><g stroke-linecap="round" transform="translate(580.1915843290953 21.686226379683376) rotate(0 153.85008613271202 65.51372855993532)"><path d="M7.86 8.16 C7.86 8.16, 7.86 8.16, 7.86 8.16 M7.86 8.16 C7.86 8.16, 7.86 8.16, 7.86 8.16 M1.43 27.75 C8.62 19.3, 16.89 10.4, 24.4 1.33 M1.43 27.75 C9.52 19.04, 17.24 9.06, 24.4 1.33 M0.91 40.54 C14.32 26.64, 26.56 7.15, 36.34 -0.21 M0.91 40.54 C10.52 30.3, 19.57 20.6, 36.34 -0.21 M1.04 52.58 C7.98 43.54, 17.55 29.9, 46.97 -0.25 M1.04 52.58 C9.65 41.63, 20.8 29.42, 46.97 -0.25 M1.18 64.62 C24.67 38.03, 43.87 13.47, 57.6 -0.28 M1.18 64.62 C13.91 48.34, 27.11 34.01, 57.6 -0.28 M1.31 76.67 C28.12 48.18, 53.58 14.7, 67.57 0.44 M1.31 76.67 C22.3 53, 42.28 30.22, 67.57 0.44 M1.44 88.71 C21.04 65.36, 44.27 42.06, 78.2 0.41 M1.44 88.71 C22.24 64.4, 44.24 39.43, 78.2 0.41 M0.92 101.5 C31.74 66.14, 63.56 30.28, 88.83 0.37 M0.92 101.5 C24.08 73.45, 47.07 47.28, 88.83 0.37 M2.37 112.03 C27.55 83.82, 50.63 55.45, 99.46 0.34 M2.37 112.03 C25.42 84.44, 48.28 58.99, 99.46 0.34 M5.78 120.3 C37.95 82.46, 72.4 46.75, 110.09 0.3 M5.78 120.3 C37.8 84.57, 67.37 50.75, 110.09 0.3 M11.82 125.55 C36.04 99.05, 58.35 73.37, 120.72 0.27 M11.82 125.55 C40.87 91.81, 70.23 60.66, 120.72 0.27 M19.17 129.29 C39.66 100.9, 64.52 73.51, 131.35 0.23 M19.17 129.29 C53.97 93.43, 85.19 55.69, 131.35 0.23 M28.49 130.76 C74.09 79.78, 116.35 31.4, 141.98 0.2 M28.49 130.76 C67.28 85.53, 105.44 42.52, 141.98 0.2 M38.46 131.48 C59.33 102.31, 83.24 76.09, 152.61 0.16 M38.46 131.48 C75.89 89.21, 112.29 47.62, 152.61 0.16 M49.09 131.45 C76.14 97.28, 105.25 63.44, 163.24 0.13 M49.09 131.45 C93.24 81.19, 138.25 29.75, 163.24 0.13 M59.72 131.41 C100.62 85.36, 143.25 41.26, 173.87 0.09 M59.72 131.41 C94.4 91.14, 130.31 51.82, 173.87 0.09 M70.35 131.38 C98.45 96.51, 131.73 60.7, 184.5 0.06 M70.35 131.38 C106.58 87.59, 144.46 44.04, 184.5 0.06 M80.98 131.35 C114.05 92.09, 148.22 52.08, 195.13 0.03 M80.98 131.35 C123.05 81.79, 166.29 33.26, 195.13 0.03 M91.61 131.31 C126.18 89.36, 161.64 52.5, 205.76 -0.01 M91.61 131.31 C118.57 99.66, 146.45 68.11, 205.76 -0.01 M102.24 131.28 C144.14 81.48, 188.52 31.9, 216.39 -0.04 M102.24 131.28 C134.02 94.42, 165.57 57.68, 216.39 -0.04 M112.87 131.24 C136.83 103.21, 164.45 73.28, 227.02 -0.08 M112.87 131.24 C156.18 80.63, 201.07 30.34, 227.02 -0.08 M123.5 131.21 C165.64 82.3, 209.44 35.43, 237.65 -0.11 M123.5 131.21 C167.73 78.32, 212.67 26.05, 237.65 -0.11 M134.13 131.17 C166.94 95.44, 201.13 59.18, 248.28 -0.15 M134.13 131.17 C177.73 81.39, 220.8 32.12, 248.28 -0.15 M144.76 131.14 C178.95 91.69, 213.32 49.16, 258.91 -0.18 M144.76 131.14 C184.82 83.67, 224.89 36.14, 258.91 -0.18 M155.39 131.1 C195.34 83.91, 236.81 36.71, 269.54 -0.22 M155.39 131.1 C181.67 97.61, 208.08 66.54, 269.54 -0.22 M166.02 131.07 C193.51 95.67, 224.57 59.45, 279.52 0.5 M166.02 131.07 C206.04 85.79, 246.39 38.28, 279.52 0.5 M176.65 131.03 C214.91 88.04, 248.92 46.9, 288.84 1.98 M176.65 131.03 C213.19 87.79, 249.86 46.26, 288.84 1.98 M187.28 131 C228.22 81.65, 272.24 33.31, 296.19 5.72 M187.28 131 C214.25 97.71, 243.19 64.49, 296.19 5.72 M197.91 130.97 C221.58 102.88, 248.42 73.28, 302.22 10.97 M197.91 130.97 C220.4 106.15, 243.37 79.6, 302.22 10.97 M208.54 130.93 C233.66 100.79, 256.69 71.74, 305.64 19.23 M208.54 130.93 C241.3 94.02, 272.82 55.59, 305.64 19.23 M219.17 130.9 C252.49 90.44, 288.65 49.51, 307.74 29.01 M219.17 130.9 C255.32 90.69, 289.05 50.3, 307.74 29.01 M229.8 130.86 C254.19 101.68, 278.49 76.04, 307.87 41.05 M229.8 130.86 C252.47 105.19, 276.57 78.3, 307.87 41.05 M240.43 130.83 C258.73 110.55, 274.36 93.63, 307.35 53.85 M240.43 130.83 C266.25 100.53, 293.42 70.47, 307.35 53.85 M251.06 130.79 C264.71 116.68, 276.54 103.16, 307.48 65.89 M251.06 130.79 C264.04 114.98, 276.72 100.24, 307.48 65.89 M261.04 131.51 C274.98 115.32, 285.79 101.76, 307.62 77.93 M261.04 131.51 C272.05 116.92, 285.07 103.17, 307.62 77.93 M271.67 131.48 C282.64 117.34, 297.05 104.6, 307.75 89.97 M271.67 131.48 C284.53 117.32, 296.26 103.47, 307.75 89.97 M283.61 129.93 C291.29 120.86, 301.86 107.98, 307.23 102.77 M283.61 129.93 C289.52 123.39, 294.82 115.66, 307.23 102.77" stroke="#ff8787" stroke-width="1" fill="none"></path><path d="M32 0 C99.78 -2.58, 171.53 -0.01, 275.7 0 M32 0 C126.85 -1.31, 220.11 -1.88, 275.7 0 M275.7 0 C297.85 -1.84, 307.86 9.34, 307.7 32 M275.7 0 C299.25 -0.92, 306.73 12.74, 307.7 32 M307.7 32 C309.7 48.9, 307.03 63.71, 307.7 99.03 M307.7 32 C307.17 53.83, 306.28 75.51, 307.7 99.03 M307.7 99.03 C309.53 122.2, 298.75 131.14, 275.7 131.03 M307.7 99.03 C306.25 121.52, 296.99 131.01, 275.7 131.03 M275.7 131.03 C179.91 132.16, 84.51 130.41, 32 131.03 M275.7 131.03 C226.93 129.8, 176.44 128.92, 32 131.03 M32 131.03 C9.66 130.94, 0.33 120.37, 0 99.03 M32 131.03 C11.2 132.05, -1.15 122.49, 0 99.03 M0 99.03 C0.7 84.26, 0 65.91, 0 32 M0 99.03 C0.04 77.83, 0.02 56.25, 0 32 M0 32 C1.82 9.14, 11.27 -0.44, 32 0 M0 32 C1.05 10.61, 10.12 -0.91, 32 0" stroke="#e03131" stroke-width="2" fill="none"></path></g><g transform="translate(685.8736864530183 64.69995493961869) rotate(0 48.16798400878906 22.5)"><text x="48.16798400878906" y="31.536" font-family="Virgil, Segoe UI Emoji" font-size="36px" fill="#1e1e1e" text-anchor="middle" style="white-space: pre;" direction="ltr" dominant-baseline="alphabetic">Proxy</text></g><g stroke-linecap="round" transform="translate(1121.8036227419907 17.56597652551818) rotate(0 153.85008613271202 65.51372855993532)"><path d="M7.86 8.16 C7.86 8.16, 7.86 8.16, 7.86 8.16 M7.86 8.16 C7.86 8.16, 7.86 8.16, 7.86 8.16 M1.43 27.75 C5.65 21.78, 13.23 14.32, 24.4 1.33 M1.43 27.75 C6.43 22.5, 12.18 15.75, 24.4 1.33 M0.91 40.54 C10.51 29.04, 17.8 18.1, 36.34 -0.21 M0.91 40.54 C13.1 27.31, 23.85 12.77, 36.34 -0.21 M1.04 52.58 C17.94 31.64, 37.29 10.05, 46.97 -0.25 M1.04 52.58 C20.26 31.94, 37.22 10.85, 46.97 -0.25 M1.18 64.62 C18.82 43.05, 36.44 25.1, 57.6 -0.28 M1.18 64.62 C17.39 46.28, 35.08 26.77, 57.6 -0.28 M1.31 76.67 C19.45 56.57, 34.92 39.84, 67.57 0.44 M1.31 76.67 C26.87 46.67, 53.79 16.9, 67.57 0.44 M1.44 88.71 C19.34 69.44, 35.6 50.82, 78.2 0.41 M1.44 88.71 C19.03 67.55, 36.53 47.25, 78.2 0.41 M0.92 101.5 C26.56 71.46, 49.35 44.12, 88.83 0.37 M0.92 101.5 C22.14 74.5, 45.77 48.54, 88.83 0.37 M2.37 112.03 C34.05 73.98, 69.7 36.81, 99.46 0.34 M2.37 112.03 C35.33 75.16, 67.14 38.21, 99.46 0.34 M5.78 120.3 C44.65 75.28, 86.11 26.87, 110.09 0.3 M5.78 120.3 C32.95 91, 58.58 59.88, 110.09 0.3 M11.82 125.55 C42.59 90.79, 69.29 60.5, 120.72 0.27 M11.82 125.55 C46.35 87.43, 80.81 47.5, 120.72 0.27 M19.17 129.29 C45.81 98.94, 70.43 71.21, 131.35 0.23 M19.17 129.29 C61.38 82.3, 102.01 34.53, 131.35 0.23 M28.49 130.76 C56.21 101.22, 82.18 67.17, 141.98 0.2 M28.49 130.76 C51.53 104.4, 74.76 75.53, 141.98 0.2 M38.46 131.48 C72.08 92.04, 102.21 57.65, 152.61 0.16 M38.46 131.48 C65.56 101.25, 92.58 71.2, 152.61 0.16 M49.09 131.45 C87.11 86.39, 127.38 41.86, 163.24 0.13 M49.09 131.45 C71.32 103.31, 94.67 76.68, 163.24 0.13 M59.72 131.41 C87.38 97.44, 119.57 63.76, 173.87 0.09 M59.72 131.41 C100.62 83.5, 143.52 36.03, 173.87 0.09 M70.35 131.38 C106.48 87.89, 144.48 45.82, 184.5 0.06 M70.35 131.38 C110.58 84.75, 151.92 35.7, 184.5 0.06 M80.98 131.35 C126.71 79.69, 169.69 25.66, 195.13 0.03 M80.98 131.35 C120.06 85.98, 158.91 42.65, 195.13 0.03 M91.61 131.31 C136.93 78.51, 178.58 30.6, 205.76 -0.01 M91.61 131.31 C128.46 88.91, 163.85 46.64, 205.76 -0.01 M102.24 131.28 C128.59 100.67, 150.37 70.57, 216.39 -0.04 M102.24 131.28 C129.85 98.26, 159.8 65.95, 216.39 -0.04 M112.87 131.24 C155.97 79.93, 200.44 31.03, 227.02 -0.08 M112.87 131.24 C157.32 80.93, 201.26 30.78, 227.02 -0.08 M123.5 131.21 C145.67 103.41, 171.19 76.93, 237.65 -0.11 M123.5 131.21 C165.72 81.25, 210.02 29.32, 237.65 -0.11 M134.13 131.17 C158.45 103.08, 179.38 77.99, 248.28 -0.15 M134.13 131.17 C162.85 99.32, 190.25 67.52, 248.28 -0.15 M144.76 131.14 C171.55 100.29, 201.05 67.53, 258.91 -0.18 M144.76 131.14 C188.76 80.97, 235.03 28.58, 258.91 -0.18 M155.39 131.1 C180.96 103.32, 204.66 71.92, 269.54 -0.22 M155.39 131.1 C183.44 99.58, 211.99 65.32, 269.54 -0.22 M166.02 131.07 C190.32 105.48, 210.69 76.49, 279.52 0.5 M166.02 131.07 C203.98 88.46, 239.81 47.73, 279.52 0.5 M176.65 131.03 C197.92 105.64, 223.68 76.94, 288.84 1.98 M176.65 131.03 C214.87 88.17, 253.19 44.91, 288.84 1.98 M187.28 131 C210.81 102.74, 236.68 74.15, 296.19 5.72 M187.28 131 C225.42 86.53, 264.98 42.01, 296.19 5.72 M197.91 130.97 C224.4 103.25, 251.11 73.72, 302.22 10.97 M197.91 130.97 C229.49 94.99, 261.81 57.94, 302.22 10.97 M208.54 130.93 C241.28 94.06, 276.44 52.86, 305.64 19.23 M208.54 130.93 C237.6 96.42, 265.3 63.67, 305.64 19.23 M219.17 130.9 C240.83 108.62, 258.92 85.4, 307.74 29.01 M219.17 130.9 C248.96 96.32, 278.74 62.56, 307.74 29.01 M229.8 130.86 C254.74 102.9, 275.55 76.06, 307.87 41.05 M229.8 130.86 C250.89 107.37, 271.94 82.85, 307.87 41.05 M240.43 130.83 C259.84 105.67, 281.53 83.94, 307.35 53.85 M240.43 130.83 C259.91 109.13, 277.94 88.19, 307.35 53.85 M251.06 130.79 C270.18 106.29, 293.33 84.75, 307.48 65.89 M251.06 130.79 C262.51 115.03, 275.07 102.56, 307.48 65.89 M261.04 131.51 C276.28 113.43, 288.87 95.91, 307.62 77.93 M261.04 131.51 C277.05 113.2, 293.9 93.96, 307.62 77.93 M271.67 131.48 C281.82 122.51, 291.95 111.8, 307.75 89.97 M271.67 131.48 C278.83 122.46, 287.11 112.95, 307.75 89.97 M283.61 129.93 C289.3 120.35, 298.74 114.25, 307.23 102.77 M283.61 129.93 C289.74 123.83, 295.72 115.91, 307.23 102.77" stroke="#ff8787" stroke-width="1" fill="none"></path><path d="M32 0 C113.44 0.47, 193.99 -2.34, 275.7 0 M32 0 C87.17 1.49, 142.31 2.43, 275.7 0 M275.7 0 C297.29 -0.34, 307.24 8.9, 307.7 32 M275.7 0 C297.07 -0.38, 307.06 9.21, 307.7 32 M307.7 32 C309.75 53.87, 306.12 74.17, 307.7 99.03 M307.7 32 C308.78 48.16, 308.45 64.3, 307.7 99.03 M307.7 99.03 C307.01 121.86, 295.31 130.72, 275.7 131.03 M307.7 99.03 C309.01 121.71, 297.68 131.21, 275.7 131.03 M275.7 131.03 C209.76 128.65, 142.77 128.45, 32 131.03 M275.7 131.03 C204.59 130.8, 135.27 130.11, 32 131.03 M32 131.03 C8.84 129.13, -1.02 119.7, 0 99.03 M32 131.03 C12.53 131.63, -2.01 120.07, 0 99.03 M0 99.03 C1.52 81.91, 1.73 66.68, 0 32 M0 99.03 C0.06 73.95, 1.25 46.82, 0 32 M0 32 C-0.78 10.93, 11.2 0.62, 32 0 M0 32 C1.16 11.39, 9.41 0.83, 32 0" stroke="#e03131" stroke-width="2" fill="none"></path></g><g transform="translate(1204.265731274605 60.5797050854535) rotate(0 71.38797760009766 22.5)"><text x="71.38797760009766" y="31.536" font-family="Virgil, Segoe UI Emoji" font-size="36px" fill="#1e1e1e" text-anchor="middle" style="white-space: pre;" direction="ltr" dominant-baseline="alphabetic">Backend</text></g><g stroke-linecap="round"><g transform="translate(331.52239832020496 48.341555639424314) rotate(0 115.73586691403034 -1.126882635990114)"><path d="M0.9 -0.14 C39.59 -0.54, 193.41 -1.86, 231.56 -2.12 M-0.09 -1.26 C38.6 -1.57, 193.07 -1.18, 231.22 -1.08" stroke="#e03131" stroke-width="2" fill="none"></path></g><g transform="translate(331.52239832020496 48.341555639424314) rotate(0 115.73586691403034 -1.126882635990114)"><path d="M207.7 7.41 C213.33 7.02, 217.85 2.01, 231.22 -1.08 M207.7 7.41 C214 5.35, 220.53 2.66, 231.22 -1.08" stroke="#e03131" stroke-width="2" fill="none"></path></g><g transform="translate(331.52239832020496 48.341555639424314) rotate(0 115.73586691403034 -1.126882635990114)"><path d="M207.74 -9.69 C213.41 -5.8, 217.91 -6.53, 231.22 -1.08 M207.74 -9.69 C213.87 -7.39, 220.4 -5.72, 231.22 -1.08" stroke="#e03131" stroke-width="2" fill="none"></path></g></g><mask></mask><g stroke-linecap="round"><g transform="translate(563.0952387582511 113.18195096207728) rotate(0 -111.58594846053711 -1.0623807039504527)"><path d="M0.01 -0.34 C-37.27 -0.41, -186.25 -0.07, -223.18 -0.18 M-1.44 -1.56 C-38.39 -1.98, -184.17 -2.11, -220.93 -1.78" stroke="#e03131" stroke-width="2" fill="none"></path></g><g transform="translate(563.0952387582511 113.18195096207728) rotate(0 -111.58594846053711 -1.0623807039504527)"><path d="M-197.46 -10.41 C-205.97 -8.93, -211.74 -3.36, -220.93 -1.78 M-197.46 -10.41 C-204.18 -7.08, -211.63 -5.74, -220.93 -1.78" stroke="#e03131" stroke-width="2" fill="none"></path></g><g transform="translate(563.0952387582511 113.18195096207728) rotate(0 -111.58594846053711 -1.0623807039504527)"><path d="M-197.41 6.69 C-205.97 2.37, -211.76 2.14, -220.93 -1.78 M-197.41 6.69 C-204.27 4.65, -211.73 0.63, -220.93 -1.78" stroke="#e03131" stroke-width="2" fill="none"></path></g></g><mask></mask><g stroke-linecap="round"><g transform="translate(901.191585797802 47.183691437234074) rotate(0 100.56806737291845 0.9577377880216318)"><path d="M-1.17 0.26 C32.59 0.7, 168.43 1.08, 202.31 1.47 M0.42 -0.65 C34.11 0.02, 168.26 1.78, 201.8 2.56" stroke="#e03131" stroke-width="2" fill="none"></path></g><g transform="translate(901.191585797802 47.183691437234074) rotate(0 100.56806737291845 0.9577377880216318)"><path d="M178.16 10.7 C185.26 10.06, 190 7.46, 201.8 2.56 M178.16 10.7 C186.02 9.07, 193.35 5.29, 201.8 2.56" stroke="#e03131" stroke-width="2" fill="none"></path></g><g transform="translate(901.191585797802 47.183691437234074) rotate(0 100.56806737291845 0.9577377880216318)"><path d="M178.46 -6.4 C185.31 -2.28, 189.97 -0.11, 201.8 2.56 M178.46 -6.4 C186.37 -2.49, 193.6 -0.74, 201.8 2.56" stroke="#e03131" stroke-width="2" fill="none"></path></g></g><mask></mask><g stroke-linecap="round"><g transform="translate(1109.6071421920424 110.86622255769703) rotate(0 -101.65352101712779 1.330391673933832)"><path d="M-0.59 0.28 C-34.83 0.95, -170.8 3.1, -204.61 3.28 M1.3 -0.62 C-32.64 -0.21, -168.1 1.2, -202.33 1.66" stroke="#e03131" stroke-width="2" fill="none"></path></g><g transform="translate(1109.6071421920424 110.86622255769703) rotate(0 -101.65352101712779 1.330391673933832)"><path d="M-178.94 -7.17 C-187.19 -5.38, -194.73 -0.21, -202.33 1.66 M-178.94 -7.17 C-183.34 -5.76, -190.12 -2.88, -202.33 1.66" stroke="#e03131" stroke-width="2" fill="none"></path></g><g transform="translate(1109.6071421920424 110.86622255769703) rotate(0 -101.65352101712779 1.330391673933832)"><path d="M-178.74 9.93 C-186.97 5.38, -194.58 4.2, -202.33 1.66 M-178.74 9.93 C-183.05 7.63, -189.88 6.8, -202.33 1.66" stroke="#e03131" stroke-width="2" fill="none"></path></g></g><mask></mask><g transform="translate(395.2049294406679 13.97417276495662) rotate(0 54.431976318359375 17.5)"><text x="0" y="24.528" font-family="Virgil, Segoe UI Emoji" font-size="28px" fill="#1e1e1e" text-anchor="start" style="white-space: pre;" direction="ltr" dominant-baseline="alphabetic">Incoming</text></g><g transform="translate(403.2976200405792 74.84039532265342) rotate(0 57.413970947265625 17.5)"><text x="0" y="24.528" font-family="Virgil, Segoe UI Emoji" font-size="28px" fill="#1e1e1e" text-anchor="start" style="white-space: pre;" direction="ltr" dominant-baseline="alphabetic">Outgoing</text></g><g transform="translate(965.3533560805117 77.15612372703367) rotate(0 54.431976318359375 17.5)"><text x="0" y="24.528" font-family="Virgil, Segoe UI Emoji" font-size="28px" fill="#1e1e1e" text-anchor="start" style="white-space: pre;" direction="ltr" dominant-baseline="alphabetic">Incoming</text></g><g transform="translate(944.0202024634236 10) rotate(0 57.413970947265625 17.5)"><text x="0" y="24.528" font-family="Virgil, Segoe UI Emoji" font-size="28px" fill="#1e1e1e" text-anchor="start" style="white-space: pre;" direction="ltr" dominant-baseline="alphabetic">Outgoing</text></g></svg>